<mxfile host="65bd71144e" scale="2" border="0">
    <diagram id="Z3IE_bP1fBQQ4hotot2r" name="TOP">
        <mxGraphModel dx="1510" dy="973" grid="1" gridSize="10" guides="1" tooltips="1" connect="1" arrows="1" fold="1" page="1" pageScale="1" pageWidth="827" pageHeight="1169" math="0" shadow="0">
            <root>
                <mxCell id="0"/>
                <mxCell id="1" parent="0"/>
                <mxCell id="gbfQJkk3ntclqrl8JLU7-44" value="Pure&lt;br&gt;&amp;nbsp;Persuit" style="rounded=0;whiteSpace=wrap;html=1;labelBackgroundColor=none;strokeColor=#56517e;fontSize=11;fillColor=#d0cee2;" vertex="1" parent="1">
                    <mxGeometry x="236.15" y="351.88" width="70" height="30" as="geometry"/>
                </mxCell>
                <mxCell id="gbfQJkk3ntclqrl8JLU7-45" value="Predictive Control" style="rounded=0;whiteSpace=wrap;html=1;labelBackgroundColor=none;strokeColor=#56517e;fontSize=11;fillColor=#d0cee2;" vertex="1" parent="1">
                    <mxGeometry x="236.15" y="390.01" width="70" height="33.75" as="geometry"/>
                </mxCell>
                <mxCell id="gbfQJkk3ntclqrl8JLU7-46" value="" style="group;rounded=0;" vertex="1" connectable="0" parent="1">
                    <mxGeometry x="70" y="320" width="98.74" height="160" as="geometry"/>
                </mxCell>
                <mxCell id="gbfQJkk3ntclqrl8JLU7-47" value="Read Frame" style="rounded=0;whiteSpace=wrap;html=1;labelBackgroundColor=none;strokeColor=#56517e;fontSize=11;fillColor=#d0cee2;" vertex="1" parent="gbfQJkk3ntclqrl8JLU7-46">
                    <mxGeometry width="98.74000000000001" height="20" as="geometry"/>
                </mxCell>
                <mxCell id="gbfQJkk3ntclqrl8JLU7-48" value="ROI" style="rounded=0;whiteSpace=wrap;html=1;labelBackgroundColor=none;fontSize=11;fillColor=#f5f5f5;fontColor=#333333;strokeColor=#666666;" vertex="1" parent="gbfQJkk3ntclqrl8JLU7-46">
                    <mxGeometry y="20" width="98.74000000000001" height="20" as="geometry"/>
                </mxCell>
                <mxCell id="gbfQJkk3ntclqrl8JLU7-49" value="Segment Floor" style="rounded=0;whiteSpace=wrap;html=1;labelBackgroundColor=none;fontSize=11;fillColor=#f5f5f5;fontColor=#333333;strokeColor=#666666;" vertex="1" parent="gbfQJkk3ntclqrl8JLU7-46">
                    <mxGeometry y="40" width="98.74000000000001" height="20" as="geometry"/>
                </mxCell>
                <mxCell id="gbfQJkk3ntclqrl8JLU7-50" value="Warp Perspective" style="rounded=0;whiteSpace=wrap;html=1;labelBackgroundColor=none;strokeColor=#666666;fontSize=11;fontColor=#333333;fillColor=#f5f5f5;" vertex="1" parent="gbfQJkk3ntclqrl8JLU7-46">
                    <mxGeometry y="60" width="98.74000000000001" height="20" as="geometry"/>
                </mxCell>
                <mxCell id="gbfQJkk3ntclqrl8JLU7-51" value="Edge Detect" style="rounded=0;whiteSpace=wrap;html=1;labelBackgroundColor=none;fontSize=11;fillColor=#f5f5f5;strokeColor=#666666;fontColor=#333333;" vertex="1" parent="gbfQJkk3ntclqrl8JLU7-46">
                    <mxGeometry y="80" width="98.74000000000001" height="20" as="geometry"/>
                </mxCell>
                <mxCell id="gbfQJkk3ntclqrl8JLU7-52" value="Histogram" style="rounded=0;whiteSpace=wrap;html=1;labelBackgroundColor=none;strokeColor=#666666;fontSize=11;fontColor=#333333;fillColor=#f5f5f5;" vertex="1" parent="gbfQJkk3ntclqrl8JLU7-46">
                    <mxGeometry y="100" width="98.74000000000001" height="20" as="geometry"/>
                </mxCell>
                <mxCell id="gbfQJkk3ntclqrl8JLU7-53" value="Sliding Window" style="rounded=0;whiteSpace=wrap;html=1;labelBackgroundColor=none;strokeColor=#666666;fontSize=11;fontColor=#333333;fillColor=#f5f5f5;" vertex="1" parent="gbfQJkk3ntclqrl8JLU7-46">
                    <mxGeometry y="120" width="98.74000000000001" height="20" as="geometry"/>
                </mxCell>
                <mxCell id="gbfQJkk3ntclqrl8JLU7-54" value="Leas Squares Fit" style="rounded=0;whiteSpace=wrap;html=1;labelBackgroundColor=none;strokeColor=#666666;fontSize=11;fontColor=#333333;fillColor=#f5f5f5;" vertex="1" parent="gbfQJkk3ntclqrl8JLU7-46">
                    <mxGeometry y="140" width="98.74000000000001" height="20" as="geometry"/>
                </mxCell>
                <mxCell id="gbfQJkk3ntclqrl8JLU7-55" value="Intensity Follower" style="rounded=0;whiteSpace=wrap;html=1;labelBackgroundColor=none;strokeColor=#56517e;fontSize=11;fillColor=#d0cee2;" vertex="1" parent="1">
                    <mxGeometry x="236.15" y="431.88" width="70" height="36.25" as="geometry"/>
                </mxCell>
                <mxCell id="gbfQJkk3ntclqrl8JLU7-56" value="" style="shape=trapezoid;perimeter=trapezoidPerimeter;whiteSpace=wrap;html=1;fixedSize=1;labelBackgroundColor=none;fontSize=11;fillColor=#f5f5f5;fontColor=#333333;strokeColor=#666666;rotation=90;flipV=0;rounded=0;" vertex="1" parent="1">
                    <mxGeometry x="110" y="398.75" width="177.5" height="22.5" as="geometry"/>
                </mxCell>
                <mxCell id="gbfQJkk3ntclqrl8JLU7-57" value="Write Frame" style="rounded=0;whiteSpace=wrap;html=1;labelBackgroundColor=none;strokeColor=#56517e;fontSize=11;fillColor=#d0cee2;" vertex="1" parent="1">
                    <mxGeometry x="70" y="480" width="98.74000000000001" height="20" as="geometry"/>
                </mxCell>
                <mxCell id="CoQkM6h77nh35kiNAQbb-44" value="Raspberry Pi 5" style="rounded=0;whiteSpace=wrap;html=1;fontSize=11;fillColor=#d0cee2;strokeColor=#56517e;" vertex="1" parent="1">
                    <mxGeometry x="320" y="110" width="101.26" height="36" as="geometry"/>
                </mxCell>
                <mxCell id="CoQkM6h77nh35kiNAQbb-45" value="" style="group;fontSize=11;fontColor=#333333;strokeColor=default;rounded=0;" vertex="1" connectable="0" parent="1">
                    <mxGeometry x="70" y="40" width="100" height="60" as="geometry"/>
                </mxCell>
                <mxCell id="CoQkM6h77nh35kiNAQbb-46" value="12V 2S3P 5Ah" style="rounded=0;whiteSpace=wrap;html=1;fontSize=11;fillColor=#d0cee2;strokeColor=#56517e;" vertex="1" parent="CoQkM6h77nh35kiNAQbb-45">
                    <mxGeometry y="20" width="99.99999999999999" height="20" as="geometry"/>
                </mxCell>
                <mxCell id="CoQkM6h77nh35kiNAQbb-47" value="USB-C PD 3S" style="rounded=0;whiteSpace=wrap;html=1;fontSize=11;fillColor=#f5f5f5;fontColor=#333333;strokeColor=default;" vertex="1" parent="CoQkM6h77nh35kiNAQbb-45">
                    <mxGeometry width="99.99999999999999" height="20" as="geometry"/>
                </mxCell>
                <mxCell id="CoQkM6h77nh35kiNAQbb-48" value="3S BMS" style="rounded=0;whiteSpace=wrap;html=1;fontSize=11;fillColor=#f5f5f5;fontColor=#333333;strokeColor=default;" vertex="1" parent="CoQkM6h77nh35kiNAQbb-45">
                    <mxGeometry y="40" width="99.99999999999999" height="20" as="geometry"/>
                </mxCell>
                <mxCell id="CoQkM6h77nh35kiNAQbb-49" value="&lt;font style=&quot;font-size: 11px;&quot;&gt;&lt;span style=&quot;font-family: Helvetica; font-size: 11px; font-style: normal; font-variant-ligatures: normal; font-variant-caps: normal; font-weight: 400; letter-spacing: normal; orphans: 2; text-align: center; text-indent: 0px; text-transform: none; widows: 2; word-spacing: 0px; -webkit-text-stroke-width: 0px; text-decoration-thickness: initial; text-decoration-style: initial; text-decoration-color: initial; float: none; display: inline !important;&quot;&gt;MPU6050&amp;nbsp;&lt;/span&gt;&lt;span style=&quot;font-family: Helvetica; font-size: 11px; font-style: normal; font-variant-ligatures: normal; font-variant-caps: normal; font-weight: 400; letter-spacing: normal; orphans: 2; text-align: center; text-indent: 0px; text-transform: none; widows: 2; word-spacing: 0px; -webkit-text-stroke-width: 0px; text-decoration-thickness: initial; text-decoration-style: initial; text-decoration-color: initial; float: none; display: inline !important;&quot;&gt;6-Axis IMU&lt;/span&gt;&lt;/font&gt;" style="rounded=0;html=1;fontSize=11;fillColor=#d0cee2;strokeColor=#56517e;" vertex="1" parent="1">
                    <mxGeometry x="180" y="70" width="130" height="30" as="geometry"/>
                </mxCell>
                <mxCell id="CoQkM6h77nh35kiNAQbb-50" value="" style="group;fontSize=11;fontColor=#333333;strokeColor=default;rounded=0;" vertex="1" connectable="0" parent="1">
                    <mxGeometry x="180" y="110" width="130" height="60" as="geometry"/>
                </mxCell>
                <mxCell id="CoQkM6h77nh35kiNAQbb-51" value="I2C" style="rounded=0;whiteSpace=wrap;html=1;container=0;fillColor=#f5f5f5;fontColor=#333333;strokeColor=default;fontSize=11;" vertex="1" parent="CoQkM6h77nh35kiNAQbb-50">
                    <mxGeometry x="20" width="90" height="20" as="geometry"/>
                </mxCell>
                <mxCell id="CoQkM6h77nh35kiNAQbb-52" value="STM32" style="rounded=0;whiteSpace=wrap;html=1;container=0;fillColor=#d0cee2;strokeColor=#56517e;fontSize=11;" vertex="1" parent="CoQkM6h77nh35kiNAQbb-50">
                    <mxGeometry x="20" y="20" width="90" height="20" as="geometry"/>
                </mxCell>
                <mxCell id="CoQkM6h77nh35kiNAQbb-53" value="&lt;span style=&quot;border-color: var(--border-color); font-size: 11px;&quot;&gt;Quadrature&amp;nbsp;&lt;/span&gt;&lt;span style=&quot;border-color: var(--border-color); font-size: 11px;&quot;&gt;Decoder&lt;/span&gt;" style="rounded=0;whiteSpace=wrap;html=1;container=0;fillColor=#f5f5f5;fontColor=#333333;strokeColor=default;fontSize=11;" vertex="1" parent="CoQkM6h77nh35kiNAQbb-50">
                    <mxGeometry y="40" width="130" height="20" as="geometry"/>
                </mxCell>
                <mxCell id="CoQkM6h77nh35kiNAQbb-54" value="PWM" style="rounded=0;whiteSpace=wrap;html=1;container=0;fillColor=#f5f5f5;fontColor=#333333;strokeColor=default;fontSize=11;" vertex="1" parent="CoQkM6h77nh35kiNAQbb-50">
                    <mxGeometry y="20" width="40" height="20" as="geometry"/>
                </mxCell>
                <mxCell id="CoQkM6h77nh35kiNAQbb-55" value="UART" style="rounded=0;whiteSpace=wrap;html=1;container=0;fillColor=#f5f5f5;fontColor=#333333;strokeColor=default;fontSize=11;" vertex="1" parent="CoQkM6h77nh35kiNAQbb-50">
                    <mxGeometry x="90" width="40" height="40" as="geometry"/>
                </mxCell>
                <mxCell id="CoQkM6h77nh35kiNAQbb-56" value="ADC" style="rounded=0;whiteSpace=wrap;html=1;labelBackgroundColor=none;strokeColor=default;fontSize=11;fontColor=#333333;fillColor=#f5f5f5;" vertex="1" parent="CoQkM6h77nh35kiNAQbb-50">
                    <mxGeometry width="40" height="20" as="geometry"/>
                </mxCell>
                <mxCell id="CoQkM6h77nh35kiNAQbb-57" value="DRV8873 H-Bridge&amp;nbsp;" style="rounded=0;whiteSpace=wrap;html=1;fillColor=#d0cee2;strokeColor=#56517e;fontSize=11;" vertex="1" parent="1">
                    <mxGeometry x="70" y="110" width="100" height="36" as="geometry"/>
                </mxCell>
                <mxCell id="CoQkM6h77nh35kiNAQbb-58" value="&lt;span style=&quot;font-size: 11px;&quot;&gt;Current Sense&lt;/span&gt;" style="rounded=0;whiteSpace=wrap;html=1;fontSize=11;fillColor=#f5f5f5;fontColor=#333333;strokeColor=default;" vertex="1" parent="1">
                    <mxGeometry x="70" y="146" width="100" height="24" as="geometry"/>
                </mxCell>
                <mxCell id="CoQkM6h77nh35kiNAQbb-59" value="&lt;span style=&quot;font-family: Helvetica; font-size: 11px; font-style: normal; font-variant-ligatures: normal; font-variant-caps: normal; font-weight: 400; letter-spacing: normal; orphans: 2; text-align: center; text-indent: 0px; text-transform: none; widows: 2; word-spacing: 0px; -webkit-text-stroke-width: 0px; text-decoration-thickness: initial; text-decoration-style: initial; text-decoration-color: initial; float: none; display: inline !important;&quot;&gt;Pi Camera V3 Wide&lt;/span&gt;" style="rounded=0;html=1;fontSize=11;fillColor=#d0cee2;strokeColor=#56517e;" vertex="1" parent="1">
                    <mxGeometry x="319.93" y="43" width="101.33" height="33" as="geometry"/>
                </mxCell>
                <mxCell id="CoQkM6h77nh35kiNAQbb-60" value="Fish Eye Lens" style="rounded=0;whiteSpace=wrap;html=1;fontSize=11;fillColor=#f5f5f5;strokeColor=default;fontColor=#333333;" vertex="1" parent="1">
                    <mxGeometry x="319.92894736842106" y="76" width="101.3305263157895" height="24" as="geometry"/>
                </mxCell>
                <mxCell id="CoQkM6h77nh35kiNAQbb-61" value="USBC PD Controler" style="rounded=0;whiteSpace=wrap;html=1;fontSize=11;fillColor=#f5f5f5;strokeColor=default;fontColor=#333333;" vertex="1" parent="1">
                    <mxGeometry x="319.99894736842106" y="146" width="101.3305263157895" height="24" as="geometry"/>
                </mxCell>
                <mxCell id="Fg-EnWa1sID-yj7RHJR0-46" value="Cascade PID" style="rounded=0;whiteSpace=wrap;html=1;labelBackgroundColor=none;strokeColor=#56517e;fontSize=11;fillColor=#d0cee2;" parent="1" vertex="1">
                    <mxGeometry x="380" y="200" width="90" height="20" as="geometry"/>
                </mxCell>
                <mxCell id="Fg-EnWa1sID-yj7RHJR0-47" value="LQR" style="rounded=0;whiteSpace=wrap;html=1;labelBackgroundColor=none;strokeColor=#56517e;fontSize=11;fillColor=#d0cee2;" parent="1" vertex="1">
                    <mxGeometry x="280" y="251.01" width="90" height="19" as="geometry"/>
                </mxCell>
                <mxCell id="Fg-EnWa1sID-yj7RHJR0-48" value="IMU Update" style="rounded=0;whiteSpace=wrap;html=1;labelBackgroundColor=none;fontSize=11;fillColor=#d0cee2;strokeColor=#56517e;" parent="1" vertex="1">
                    <mxGeometry x="280" y="200" width="90" height="20" as="geometry"/>
                </mxCell>
                <mxCell id="Fg-EnWa1sID-yj7RHJR0-49" value="Kalman Estimate" style="rounded=0;whiteSpace=wrap;html=1;labelBackgroundColor=none;fontSize=11;fontColor=#333333;fillColor=#f5f5f5;strokeColor=default;" parent="1" vertex="1">
                    <mxGeometry x="280" y="220" width="90" height="21" as="geometry"/>
                </mxCell>
                <mxCell id="Fg-EnWa1sID-yj7RHJR0-50" value="Velocity PI" style="rounded=0;whiteSpace=wrap;html=1;labelBackgroundColor=none;fontSize=11;fontColor=#333333;fillColor=#f5f5f5;strokeColor=default;" parent="1" vertex="1">
                    <mxGeometry x="380" y="220" width="90" height="20" as="geometry"/>
                </mxCell>
                <mxCell id="Fg-EnWa1sID-yj7RHJR0-51" value="Balance PID" style="rounded=0;whiteSpace=wrap;html=1;labelBackgroundColor=none;fontSize=11;fontColor=#333333;fillColor=#f5f5f5;strokeColor=default;" parent="1" vertex="1">
                    <mxGeometry x="380" y="240" width="90" height="20" as="geometry"/>
                </mxCell>
                <mxCell id="Fg-EnWa1sID-yj7RHJR0-52" value="Wheel RPM PI" style="rounded=0;whiteSpace=wrap;html=1;labelBackgroundColor=none;fontSize=11;fontColor=#333333;fillColor=#f5f5f5;strokeColor=default;" parent="1" vertex="1">
                    <mxGeometry x="380" y="260" width="90" height="20" as="geometry"/>
                </mxCell>
                <mxCell id="Fg-EnWa1sID-yj7RHJR0-53" value="1B HW TX Buffer" style="rounded=0;whiteSpace=wrap;html=1;labelBackgroundColor=none;fontSize=11;fillColor=#d0cee2;strokeColor=#56517e;" parent="1" vertex="1">
                    <mxGeometry x="69.99913043478261" y="280" width="97.3913043478261" height="20" as="geometry"/>
                </mxCell>
                <mxCell id="Fg-EnWa1sID-yj7RHJR0-54" value="1B HW RX Buffer" style="rounded=0;whiteSpace=wrap;html=1;labelBackgroundColor=none;fontSize=11;fillColor=#d0cee2;strokeColor=#56517e;" parent="1" vertex="1">
                    <mxGeometry x="180" y="280" width="90" height="20" as="geometry"/>
                </mxCell>
                <mxCell id="Fg-EnWa1sID-yj7RHJR0-55" value="Ring Buffer" style="rounded=0;whiteSpace=wrap;html=1;labelBackgroundColor=none;fontSize=11;fontColor=#333333;fillColor=#f5f5f5;strokeColor=default;" parent="1" vertex="1">
                    <mxGeometry x="69.99913043478261" y="260" width="97.3913043478261" height="20" as="geometry"/>
                </mxCell>
                <mxCell id="Fg-EnWa1sID-yj7RHJR0-56" value="Publish Telemetry" style="rounded=0;whiteSpace=wrap;html=1;labelBackgroundColor=none;fontSize=11;fillColor=#d0cee2;strokeColor=#56517e;" parent="1" vertex="1">
                    <mxGeometry x="69.99913043478261" y="200" width="97.3913043478261" height="20" as="geometry"/>
                </mxCell>
                <mxCell id="Fg-EnWa1sID-yj7RHJR0-57" value="Serialiazation" style="rounded=0;whiteSpace=wrap;html=1;labelBackgroundColor=none;fontSize=11;fontColor=#333333;fillColor=#f5f5f5;strokeColor=default;" parent="1" vertex="1">
                    <mxGeometry x="69.99913043478261" y="220" width="97.3913043478261" height="20" as="geometry"/>
                </mxCell>
                <mxCell id="Fg-EnWa1sID-yj7RHJR0-58" value="Build Packet" style="rounded=0;whiteSpace=wrap;html=1;labelBackgroundColor=none;fontSize=11;fontColor=#333333;fillColor=#f5f5f5;strokeColor=default;" parent="1" vertex="1">
                    <mxGeometry x="69.99913043478261" y="240" width="97.3913043478261" height="20" as="geometry"/>
                </mxCell>
                <mxCell id="Fg-EnWa1sID-yj7RHJR0-59" value="Ring Buffer" style="rounded=0;whiteSpace=wrap;html=1;labelBackgroundColor=none;fontSize=11;fontColor=#333333;fillColor=#f5f5f5;strokeColor=default;" parent="1" vertex="1">
                    <mxGeometry x="180" y="260" width="90" height="20" as="geometry"/>
                </mxCell>
                <mxCell id="Fg-EnWa1sID-yj7RHJR0-60" value="Parse" style="rounded=0;whiteSpace=wrap;html=1;labelBackgroundColor=none;fontSize=11;fontColor=#333333;fillColor=#f5f5f5;strokeColor=default;" parent="1" vertex="1">
                    <mxGeometry x="180" y="240" width="90" height="20" as="geometry"/>
                </mxCell>
                <mxCell id="Fg-EnWa1sID-yj7RHJR0-61" value="Validate" style="rounded=0;whiteSpace=wrap;html=1;labelBackgroundColor=none;fontSize=11;fontColor=#333333;fillColor=#f5f5f5;strokeColor=default;" parent="1" vertex="1">
                    <mxGeometry x="180" y="220" width="90" height="20" as="geometry"/>
                </mxCell>
                <mxCell id="Fg-EnWa1sID-yj7RHJR0-62" value="Execute RPC&amp;nbsp;" style="rounded=0;whiteSpace=wrap;html=1;labelBackgroundColor=none;fontSize=11;fillColor=#d0cee2;strokeColor=#56517e;" parent="1" vertex="1">
                    <mxGeometry x="180" y="200" width="90" height="20" as="geometry"/>
                </mxCell>
                <mxCell id="Fg-EnWa1sID-yj7RHJR0-63" value="OTA Bootloader" style="rounded=0;whiteSpace=wrap;html=1;labelBackgroundColor=none;strokeColor=#56517e;fontSize=11;fillColor=#d0cee2;" parent="1" vertex="1">
                    <mxGeometry x="280" y="280" width="90" height="20" as="geometry"/>
                </mxCell>
            </root>
        </mxGraphModel>
    </diagram>
    <diagram id="q1rmEA_TpBoTAxOBnUqe" name="Modeling Diagrams">
        <mxGraphModel dx="1321" dy="851" grid="1" gridSize="10" guides="1" tooltips="1" connect="1" arrows="1" fold="1" page="1" pageScale="1" pageWidth="1169" pageHeight="827" math="1" shadow="0">
            <root>
                <mxCell id="0"/>
                <mxCell id="1" parent="0"/>
                <mxCell id="TKd_RZiGEtcEI9ZwANgn-2" value="in" style="rounded=0;whiteSpace=wrap;html=1;labelBackgroundColor=none;fontSize=11;" parent="1" vertex="1">
                    <mxGeometry x="510" y="20" width="320.5" height="340" as="geometry"/>
                </mxCell>
                <mxCell id="TKd_RZiGEtcEI9ZwANgn-1" value="" style="rounded=0;whiteSpace=wrap;html=1;labelBackgroundColor=none;fontSize=11;" parent="1" vertex="1">
                    <mxGeometry x="670" y="402.5" width="310" height="340" as="geometry"/>
                </mxCell>
                <mxCell id="RGgf09svHBlM94WwxJDz-36" value="" style="rounded=0;whiteSpace=wrap;html=1;" parent="1" vertex="1">
                    <mxGeometry x="360" y="640" width="80" height="80" as="geometry"/>
                </mxCell>
                <mxCell id="RGgf09svHBlM94WwxJDz-28" value="" style="shape=parallelogram;perimeter=parallelogramPerimeter;whiteSpace=wrap;html=1;fixedSize=1;rotation=-15;size=30.000000000000114;" parent="1" vertex="1">
                    <mxGeometry x="181.41" y="622.5" width="80" height="120" as="geometry"/>
                </mxCell>
                <mxCell id="r7VjS9YqXIL3C1uOv69l-218" value="" style="group" parent="1" vertex="1" connectable="0">
                    <mxGeometry x="20" y="370" width="520" height="210" as="geometry"/>
                </mxCell>
                <mxCell id="r7VjS9YqXIL3C1uOv69l-217" value="" style="rounded=0;whiteSpace=wrap;html=1;strokeWidth=1;" parent="r7VjS9YqXIL3C1uOv69l-218" vertex="1">
                    <mxGeometry width="520" height="210" as="geometry"/>
                </mxCell>
                <mxCell id="r7VjS9YqXIL3C1uOv69l-148" value="$$L_a$$" style="pointerEvents=1;verticalLabelPosition=bottom;shadow=0;dashed=0;align=center;html=1;verticalAlign=top;shape=mxgraph.electrical.inductors.inductor_3;direction=east;" parent="r7VjS9YqXIL3C1uOv69l-218" vertex="1">
                    <mxGeometry x="170" y="22" width="100" height="8" as="geometry"/>
                </mxCell>
                <mxCell id="r7VjS9YqXIL3C1uOv69l-160" value="M" style="shape=mxgraph.electrical.electro-mechanical.motor_2;html=1;shadow=0;dashed=0;align=center;fontSize=30;strokeWidth=1;direction=north;" parent="r7VjS9YqXIL3C1uOv69l-218" vertex="1">
                    <mxGeometry x="240" y="60" width="60" height="100" as="geometry"/>
                </mxCell>
                <mxCell id="r7VjS9YqXIL3C1uOv69l-161" value="" style="verticalLabelPosition=bottom;shadow=0;dashed=0;align=center;fillColor=strokeColor;html=1;verticalAlign=top;strokeWidth=1;shape=mxgraph.electrical.miscellaneous.monocell_battery;direction=north;" parent="r7VjS9YqXIL3C1uOv69l-218" vertex="1">
                    <mxGeometry x="40" y="60" width="60" height="100" as="geometry"/>
                </mxCell>
                <mxCell id="r7VjS9YqXIL3C1uOv69l-165" value="" style="pointerEvents=1;verticalLabelPosition=bottom;shadow=0;dashed=0;align=center;html=1;verticalAlign=top;shape=mxgraph.electrical.resistors.resistor_2;" parent="r7VjS9YqXIL3C1uOv69l-218" vertex="1">
                    <mxGeometry x="70" y="20" width="100" height="20" as="geometry"/>
                </mxCell>
                <mxCell id="r7VjS9YqXIL3C1uOv69l-169" value="" style="endArrow=none;html=1;strokeWidth=1;exitX=1;exitY=0.5;exitDx=0;exitDy=0;exitPerimeter=0;" parent="r7VjS9YqXIL3C1uOv69l-218" source="r7VjS9YqXIL3C1uOv69l-165" edge="1">
                    <mxGeometry width="50" height="50" relative="1" as="geometry">
                        <mxPoint x="140" y="70" as="sourcePoint"/>
                        <mxPoint x="170" y="30" as="targetPoint"/>
                    </mxGeometry>
                </mxCell>
                <mxCell id="r7VjS9YqXIL3C1uOv69l-172" value="" style="endArrow=none;html=1;strokeWidth=1;entryX=1;entryY=0.5;entryDx=0;entryDy=0;entryPerimeter=0;arcSize=0;" parent="r7VjS9YqXIL3C1uOv69l-218" target="r7VjS9YqXIL3C1uOv69l-160" edge="1">
                    <mxGeometry width="50" height="50" relative="1" as="geometry">
                        <mxPoint x="270" y="30" as="sourcePoint"/>
                        <mxPoint x="180" y="60" as="targetPoint"/>
                        <Array as="points"/>
                    </mxGeometry>
                </mxCell>
                <mxCell id="r7VjS9YqXIL3C1uOv69l-173" value="" style="endArrow=none;html=1;strokeWidth=1;exitX=0;exitY=0.5;exitDx=0;exitDy=0;exitPerimeter=0;entryX=0;entryY=0.5;entryDx=0;entryDy=0;entryPerimeter=0;jumpStyle=none;arcSize=0;" parent="r7VjS9YqXIL3C1uOv69l-218" source="r7VjS9YqXIL3C1uOv69l-161" target="r7VjS9YqXIL3C1uOv69l-160" edge="1">
                    <mxGeometry width="50" height="50" relative="1" as="geometry">
                        <mxPoint x="70" y="210" as="sourcePoint"/>
                        <mxPoint x="120" y="160" as="targetPoint"/>
                        <Array as="points">
                            <mxPoint x="70" y="190"/>
                            <mxPoint x="170" y="190"/>
                            <mxPoint x="270" y="190"/>
                        </Array>
                    </mxGeometry>
                </mxCell>
                <mxCell id="r7VjS9YqXIL3C1uOv69l-194" value="" style="verticalLabelPosition=bottom;shadow=0;dashed=0;align=center;html=1;verticalAlign=top;shape=mxgraph.electrical.rot_mech.gearing;pointerEvents=1;strokeWidth=1;" parent="r7VjS9YqXIL3C1uOv69l-218" vertex="1">
                    <mxGeometry x="365" y="58" width="100" height="64" as="geometry"/>
                </mxCell>
                <mxCell id="r7VjS9YqXIL3C1uOv69l-195" value="" style="endArrow=none;html=1;strokeWidth=1;jumpStyle=none;exitX=0.5;exitY=1;exitDx=0;exitDy=0;exitPerimeter=0;entryX=0.502;entryY=1.012;entryDx=0;entryDy=0;entryPerimeter=0;" parent="r7VjS9YqXIL3C1uOv69l-218" source="r7VjS9YqXIL3C1uOv69l-174" target="r7VjS9YqXIL3C1uOv69l-160" edge="1">
                    <mxGeometry width="50" height="50" relative="1" as="geometry">
                        <mxPoint x="370" y="230" as="sourcePoint"/>
                        <mxPoint x="420" y="180" as="targetPoint"/>
                    </mxGeometry>
                </mxCell>
                <mxCell id="r7VjS9YqXIL3C1uOv69l-174" value="" style="shape=cylinder3;whiteSpace=wrap;html=1;boundedLbl=1;backgroundOutline=1;size=15;rotation=90;direction=east;" parent="r7VjS9YqXIL3C1uOv69l-218" vertex="1">
                    <mxGeometry x="321.25" y="87.5" width="42.5" height="45" as="geometry"/>
                </mxCell>
                <mxCell id="r7VjS9YqXIL3C1uOv69l-175" value="" style="shape=cylinder3;whiteSpace=wrap;html=1;boundedLbl=1;backgroundOutline=1;size=15;rotation=90;direction=east;" parent="r7VjS9YqXIL3C1uOv69l-218" vertex="1">
                    <mxGeometry x="420" y="80.5" width="121" height="41.5" as="geometry"/>
                </mxCell>
                <mxCell id="r7VjS9YqXIL3C1uOv69l-198" value="" style="endArrow=classic;html=1;strokeWidth=1;jumpStyle=none;" parent="r7VjS9YqXIL3C1uOv69l-218" edge="1">
                    <mxGeometry width="50" height="50" relative="1" as="geometry">
                        <mxPoint x="230" y="150" as="sourcePoint"/>
                        <mxPoint x="230" y="70" as="targetPoint"/>
                    </mxGeometry>
                </mxCell>
                <mxCell id="r7VjS9YqXIL3C1uOv69l-199" value="$$e_b$$" style="edgeLabel;html=1;align=center;verticalAlign=middle;resizable=0;points=[];" parent="r7VjS9YqXIL3C1uOv69l-198" vertex="1" connectable="0">
                    <mxGeometry x="-0.5654" y="-1" relative="1" as="geometry">
                        <mxPoint x="-15" y="-22" as="offset"/>
                    </mxGeometry>
                </mxCell>
                <mxCell id="r7VjS9YqXIL3C1uOv69l-200" value="+" style="edgeLabel;html=1;align=center;verticalAlign=middle;resizable=0;points=[];" parent="r7VjS9YqXIL3C1uOv69l-198" vertex="1" connectable="0">
                    <mxGeometry x="0.7423" relative="1" as="geometry">
                        <mxPoint x="10" as="offset"/>
                    </mxGeometry>
                </mxCell>
                <mxCell id="r7VjS9YqXIL3C1uOv69l-201" value="" style="endArrow=classic;html=1;strokeWidth=1;jumpStyle=none;" parent="r7VjS9YqXIL3C1uOv69l-218" edge="1">
                    <mxGeometry width="50" height="50" relative="1" as="geometry">
                        <mxPoint x="30" y="150" as="sourcePoint"/>
                        <mxPoint x="30" y="70" as="targetPoint"/>
                    </mxGeometry>
                </mxCell>
                <mxCell id="r7VjS9YqXIL3C1uOv69l-202" value="$$V_a$$" style="edgeLabel;html=1;align=center;verticalAlign=middle;resizable=0;points=[];" parent="r7VjS9YqXIL3C1uOv69l-201" vertex="1" connectable="0">
                    <mxGeometry x="-0.2937" relative="1" as="geometry">
                        <mxPoint x="-10" y="-11" as="offset"/>
                    </mxGeometry>
                </mxCell>
                <mxCell id="r7VjS9YqXIL3C1uOv69l-203" value="+" style="edgeLabel;html=1;align=center;verticalAlign=middle;resizable=0;points=[];" parent="r7VjS9YqXIL3C1uOv69l-201" vertex="1" connectable="0">
                    <mxGeometry x="0.8813" y="2" relative="1" as="geometry">
                        <mxPoint x="12" as="offset"/>
                    </mxGeometry>
                </mxCell>
                <mxCell id="r7VjS9YqXIL3C1uOv69l-205" value="N1" style="text;html=1;align=center;verticalAlign=middle;resizable=0;points=[];autosize=1;strokeColor=none;fillColor=none;" parent="r7VjS9YqXIL3C1uOv69l-218" vertex="1">
                    <mxGeometry x="395" y="95" width="40" height="30" as="geometry"/>
                </mxCell>
                <mxCell id="r7VjS9YqXIL3C1uOv69l-206" value="N2" style="text;html=1;align=center;verticalAlign=middle;resizable=0;points=[];autosize=1;strokeColor=none;fillColor=none;" parent="r7VjS9YqXIL3C1uOv69l-218" vertex="1">
                    <mxGeometry x="395" y="63" width="40" height="30" as="geometry"/>
                </mxCell>
                <mxCell id="r7VjS9YqXIL3C1uOv69l-207" value="$$J_r$$" style="text;html=1;align=center;verticalAlign=middle;resizable=0;points=[];autosize=1;strokeColor=none;fillColor=none;" parent="r7VjS9YqXIL3C1uOv69l-218" vertex="1">
                    <mxGeometry x="313.75" y="95" width="70" height="30" as="geometry"/>
                </mxCell>
                <mxCell id="r7VjS9YqXIL3C1uOv69l-208" value="$$J_w$$" style="text;html=1;align=center;verticalAlign=middle;resizable=0;points=[];autosize=1;strokeColor=none;fillColor=none;" parent="r7VjS9YqXIL3C1uOv69l-218" vertex="1">
                    <mxGeometry x="450" y="87.5" width="70" height="30" as="geometry"/>
                </mxCell>
                <mxCell id="r7VjS9YqXIL3C1uOv69l-209" value="$$B_r$$" style="text;html=1;align=center;verticalAlign=middle;resizable=0;points=[];autosize=1;strokeColor=none;fillColor=none;" parent="r7VjS9YqXIL3C1uOv69l-218" vertex="1">
                    <mxGeometry x="306.25" y="125" width="70" height="30" as="geometry"/>
                </mxCell>
                <mxCell id="r7VjS9YqXIL3C1uOv69l-211" value="$$B_w$$" style="text;html=1;align=center;verticalAlign=middle;resizable=0;points=[];autosize=1;strokeColor=none;fillColor=none;" parent="r7VjS9YqXIL3C1uOv69l-218" vertex="1">
                    <mxGeometry x="445.5" y="160" width="70" height="30" as="geometry"/>
                </mxCell>
                <mxCell id="r7VjS9YqXIL3C1uOv69l-212" value="" style="verticalLabelPosition=bottom;shadow=0;dashed=0;align=center;html=1;verticalAlign=top;shape=mxgraph.electrical.rot_mech.verticalLabelPosition=bottom;shadow=0;dashed=0;align=center;fillColor=strokeColor;html=1;verticalAlign=top;strokeWidth=1;shape=mxgraph.electrical.rot_mech.rotation;rotation=-75;" parent="r7VjS9YqXIL3C1uOv69l-218" vertex="1">
                    <mxGeometry x="365" y="102" width="34" height="20" as="geometry"/>
                </mxCell>
                <mxCell id="r7VjS9YqXIL3C1uOv69l-214" value="" style="verticalLabelPosition=bottom;shadow=0;dashed=0;align=center;html=1;verticalAlign=top;shape=mxgraph.electrical.rot_mech.verticalLabelPosition=bottom;shadow=0;dashed=0;align=center;fillColor=strokeColor;html=1;verticalAlign=top;strokeWidth=1;shape=mxgraph.electrical.rot_mech.rotation;rotation=-90;flipV=1;" parent="r7VjS9YqXIL3C1uOv69l-218" vertex="1">
                    <mxGeometry x="431" y="68" width="34" height="20" as="geometry"/>
                </mxCell>
                <mxCell id="r7VjS9YqXIL3C1uOv69l-215" value="$$\phi_w$$" style="text;html=1;align=center;verticalAlign=middle;resizable=0;points=[];autosize=1;strokeColor=none;fillColor=none;" parent="r7VjS9YqXIL3C1uOv69l-218" vertex="1">
                    <mxGeometry x="408" y="33" width="80" height="30" as="geometry"/>
                </mxCell>
                <mxCell id="b8j8sX9C9uJOOnNy8c7S-2" value="$$R_a$$" style="text;html=1;align=center;verticalAlign=middle;resizable=0;points=[];autosize=1;strokeColor=none;fillColor=none;" parent="r7VjS9YqXIL3C1uOv69l-218" vertex="1">
                    <mxGeometry x="89" y="38" width="70" height="30" as="geometry"/>
                </mxCell>
                <mxCell id="b8j8sX9C9uJOOnNy8c7S-4" value="$$\phi_r$$" style="text;html=1;align=center;verticalAlign=middle;resizable=0;points=[];autosize=1;strokeColor=none;fillColor=none;" parent="r7VjS9YqXIL3C1uOv69l-218" vertex="1">
                    <mxGeometry x="340" y="117.5" width="80" height="30" as="geometry"/>
                </mxCell>
                <mxCell id="hyxHnFPQicrcM5KoJHcE-1" value="$$i_a$$" style="text;html=1;align=center;verticalAlign=middle;resizable=0;points=[];autosize=1;strokeColor=none;fillColor=none;" parent="r7VjS9YqXIL3C1uOv69l-218" vertex="1">
                    <mxGeometry x="19" y="29" width="70" height="30" as="geometry"/>
                </mxCell>
                <mxCell id="hyxHnFPQicrcM5KoJHcE-3" value="" style="endArrow=classic;html=1;exitX=1;exitY=0.5;exitDx=0;exitDy=0;exitPerimeter=0;endFill=1;" parent="r7VjS9YqXIL3C1uOv69l-218" source="r7VjS9YqXIL3C1uOv69l-161" edge="1">
                    <mxGeometry width="50" height="50" relative="1" as="geometry">
                        <mxPoint x="90" y="120" as="sourcePoint"/>
                        <mxPoint x="70" y="40" as="targetPoint"/>
                    </mxGeometry>
                </mxCell>
                <mxCell id="hyxHnFPQicrcM5KoJHcE-4" value="" style="endArrow=none;html=1;exitX=0;exitY=0.5;exitDx=0;exitDy=0;exitPerimeter=0;entryX=1;entryY=0.5;entryDx=0;entryDy=0;entryPerimeter=0;" parent="r7VjS9YqXIL3C1uOv69l-218" source="r7VjS9YqXIL3C1uOv69l-165" target="r7VjS9YqXIL3C1uOv69l-161" edge="1">
                    <mxGeometry width="50" height="50" relative="1" as="geometry">
                        <mxPoint x="130" y="140" as="sourcePoint"/>
                        <mxPoint x="180" y="90" as="targetPoint"/>
                    </mxGeometry>
                </mxCell>
                <mxCell id="RGgf09svHBlM94WwxJDz-1" value="" style="endArrow=classic;html=1;" parent="1" edge="1">
                    <mxGeometry width="50" height="50" relative="1" as="geometry">
                        <mxPoint x="76.41" y="686.5" as="sourcePoint"/>
                        <mxPoint x="76.41" y="766.5" as="targetPoint"/>
                    </mxGeometry>
                </mxCell>
                <mxCell id="RGgf09svHBlM94WwxJDz-6" value="Y" style="edgeLabel;html=1;align=center;verticalAlign=middle;resizable=0;points=[];" parent="RGgf09svHBlM94WwxJDz-1" vertex="1" connectable="0">
                    <mxGeometry x="0.8386" y="-2" relative="1" as="geometry">
                        <mxPoint x="-3" y="17" as="offset"/>
                    </mxGeometry>
                </mxCell>
                <mxCell id="RGgf09svHBlM94WwxJDz-2" value="" style="endArrow=classic;html=1;startArrow=oval;startFill=1;" parent="1" edge="1">
                    <mxGeometry width="50" height="50" relative="1" as="geometry">
                        <mxPoint x="76.41" y="686.5" as="sourcePoint"/>
                        <mxPoint x="26.409999999999997" y="746.5" as="targetPoint"/>
                    </mxGeometry>
                </mxCell>
                <mxCell id="RGgf09svHBlM94WwxJDz-5" value="X" style="edgeLabel;html=1;align=center;verticalAlign=middle;resizable=0;points=[];" parent="RGgf09svHBlM94WwxJDz-2" vertex="1" connectable="0">
                    <mxGeometry x="0.5312" relative="1" as="geometry">
                        <mxPoint x="-18" y="14" as="offset"/>
                    </mxGeometry>
                </mxCell>
                <mxCell id="RGgf09svHBlM94WwxJDz-3" value="" style="endArrow=classic;html=1;" parent="1" edge="1">
                    <mxGeometry width="50" height="50" relative="1" as="geometry">
                        <mxPoint x="76.41" y="686.5" as="sourcePoint"/>
                        <mxPoint x="156.41" y="686.5" as="targetPoint"/>
                    </mxGeometry>
                </mxCell>
                <mxCell id="RGgf09svHBlM94WwxJDz-7" value="Z" style="edgeLabel;html=1;align=center;verticalAlign=middle;resizable=0;points=[];" parent="RGgf09svHBlM94WwxJDz-3" vertex="1" connectable="0">
                    <mxGeometry x="0.6409" relative="1" as="geometry">
                        <mxPoint x="8" y="20" as="offset"/>
                    </mxGeometry>
                </mxCell>
                <mxCell id="RGgf09svHBlM94WwxJDz-13" value="Virtual Plane" style="text;html=1;align=center;verticalAlign=middle;resizable=0;points=[];autosize=1;strokeColor=none;fillColor=none;" parent="1" vertex="1">
                    <mxGeometry x="166.41" y="586" width="90" height="30" as="geometry"/>
                </mxCell>
                <mxCell id="RGgf09svHBlM94WwxJDz-14" value="" style="endArrow=none;dashed=1;html=1;strokeWidth=2;startArrow=none;" parent="1" source="RGgf09svHBlM94WwxJDz-28" edge="1">
                    <mxGeometry width="50" height="50" relative="1" as="geometry">
                        <mxPoint x="156.41" y="686.5" as="sourcePoint"/>
                        <mxPoint x="276.40999999999997" y="686.5" as="targetPoint"/>
                    </mxGeometry>
                </mxCell>
                <mxCell id="RGgf09svHBlM94WwxJDz-15" value="" style="endArrow=none;dashed=1;html=1;dashPattern=1 1;strokeWidth=2;exitX=0.839;exitY=1.14;exitDx=0;exitDy=0;exitPerimeter=0;" parent="1" source="RGgf09svHBlM94WwxJDz-27" edge="1">
                    <mxGeometry width="50" height="50" relative="1" as="geometry">
                        <mxPoint x="156.41" y="686.5" as="sourcePoint"/>
                        <mxPoint x="276.40999999999997" y="646.5" as="targetPoint"/>
                    </mxGeometry>
                </mxCell>
                <mxCell id="RGgf09svHBlM94WwxJDz-16" value="" style="endArrow=none;dashed=1;html=1;strokeWidth=2;" parent="1" edge="1">
                    <mxGeometry width="50" height="50" relative="1" as="geometry">
                        <mxPoint x="276.40999999999997" y="646.5" as="sourcePoint"/>
                        <mxPoint x="276.40999999999997" y="686.5" as="targetPoint"/>
                    </mxGeometry>
                </mxCell>
                <mxCell id="RGgf09svHBlM94WwxJDz-20" value="i,j" style="text;html=1;align=center;verticalAlign=middle;resizable=0;points=[];autosize=1;strokeColor=none;fillColor=none;" parent="1" vertex="1">
                    <mxGeometry x="206.41" y="629" width="30" height="30" as="geometry"/>
                </mxCell>
                <mxCell id="RGgf09svHBlM94WwxJDz-21" value="x,y,z" style="text;html=1;align=center;verticalAlign=middle;resizable=0;points=[];autosize=1;strokeColor=none;fillColor=none;" parent="1" vertex="1">
                    <mxGeometry x="256.40999999999997" y="622.5" width="50" height="30" as="geometry"/>
                </mxCell>
                <mxCell id="RGgf09svHBlM94WwxJDz-23" value="" style="endArrow=classic;startArrow=classic;html=1;dashed=1;dashPattern=1 4;" parent="1" edge="1">
                    <mxGeometry width="50" height="50" relative="1" as="geometry">
                        <mxPoint x="76.41" y="726.5" as="sourcePoint"/>
                        <mxPoint x="196.41" y="726.5" as="targetPoint"/>
                    </mxGeometry>
                </mxCell>
                <mxCell id="RGgf09svHBlM94WwxJDz-24" value="f" style="edgeLabel;html=1;align=center;verticalAlign=middle;resizable=0;points=[];" parent="RGgf09svHBlM94WwxJDz-23" vertex="1" connectable="0">
                    <mxGeometry x="0.3263" y="-2" relative="1" as="geometry">
                        <mxPoint x="-19" y="8" as="offset"/>
                    </mxGeometry>
                </mxCell>
                <mxCell id="RGgf09svHBlM94WwxJDz-27" value="O" style="text;html=1;align=center;verticalAlign=middle;resizable=0;points=[];autosize=1;strokeColor=none;fillColor=none;" parent="1" vertex="1">
                    <mxGeometry x="51.41" y="652.5" width="30" height="30" as="geometry"/>
                </mxCell>
                <mxCell id="RGgf09svHBlM94WwxJDz-29" value="" style="endArrow=none;dashed=1;html=1;strokeWidth=2;" parent="1" target="RGgf09svHBlM94WwxJDz-28" edge="1">
                    <mxGeometry width="50" height="50" relative="1" as="geometry">
                        <mxPoint x="156.40999999999988" y="686.5" as="sourcePoint"/>
                        <mxPoint x="276.40999999999997" y="686.5" as="targetPoint"/>
                    </mxGeometry>
                </mxCell>
                <mxCell id="RGgf09svHBlM94WwxJDz-30" value="" style="endArrow=classic;html=1;dashed=1;" parent="1" edge="1">
                    <mxGeometry width="50" height="50" relative="1" as="geometry">
                        <mxPoint x="360" y="640" as="sourcePoint"/>
                        <mxPoint x="440" y="640" as="targetPoint"/>
                    </mxGeometry>
                </mxCell>
                <mxCell id="RGgf09svHBlM94WwxJDz-34" value="X" style="edgeLabel;html=1;align=center;verticalAlign=middle;resizable=0;points=[];" parent="RGgf09svHBlM94WwxJDz-30" vertex="1" connectable="0">
                    <mxGeometry x="0.4136" relative="1" as="geometry">
                        <mxPoint x="35" y="-2" as="offset"/>
                    </mxGeometry>
                </mxCell>
                <mxCell id="RGgf09svHBlM94WwxJDz-31" value="" style="endArrow=classic;html=1;dashed=1;" parent="1" edge="1">
                    <mxGeometry width="50" height="50" relative="1" as="geometry">
                        <mxPoint x="360" y="640" as="sourcePoint"/>
                        <mxPoint x="360" y="720" as="targetPoint"/>
                    </mxGeometry>
                </mxCell>
                <mxCell id="RGgf09svHBlM94WwxJDz-33" value="Y" style="edgeLabel;html=1;align=center;verticalAlign=middle;resizable=0;points=[];" parent="RGgf09svHBlM94WwxJDz-31" vertex="1" connectable="0">
                    <mxGeometry x="0.6114" relative="1" as="geometry">
                        <mxPoint y="26" as="offset"/>
                    </mxGeometry>
                </mxCell>
                <mxCell id="RGgf09svHBlM94WwxJDz-78" value="" style="group" parent="1" vertex="1" connectable="0">
                    <mxGeometry x="1010" y="60" width="370" height="349.78" as="geometry"/>
                </mxCell>
                <mxCell id="RGgf09svHBlM94WwxJDz-77" value="" style="rounded=0;whiteSpace=wrap;html=1;labelBackgroundColor=none;" parent="RGgf09svHBlM94WwxJDz-78" vertex="1">
                    <mxGeometry y="-40" width="370" height="339" as="geometry"/>
                </mxCell>
                <mxCell id="RGgf09svHBlM94WwxJDz-62" value="" style="ellipse;whiteSpace=wrap;html=1;aspect=fixed;dashed=1;dashPattern=1 4;fillColor=none;" parent="RGgf09svHBlM94WwxJDz-78" vertex="1">
                    <mxGeometry x="145" y="139.78" width="210" height="210" as="geometry"/>
                </mxCell>
                <mxCell id="RGgf09svHBlM94WwxJDz-52" value="" style="curved=1;endArrow=none;html=1;strokeWidth=4;endFill=0;movable=1;resizable=1;rotatable=1;deletable=1;editable=1;connectable=1;startArrow=oval;startFill=1;dashed=1;" parent="RGgf09svHBlM94WwxJDz-78" source="RGgf09svHBlM94WwxJDz-41" edge="1">
                    <mxGeometry width="50" height="50" relative="1" as="geometry">
                        <mxPoint x="253.67000000000007" y="279.78" as="sourcePoint"/>
                        <mxPoint x="273.6700000000001" y="49.78" as="targetPoint"/>
                        <Array as="points">
                            <mxPoint x="246.83000000000015" y="159.78"/>
                            <mxPoint x="186.83000000000015" y="139.78"/>
                            <mxPoint x="143.67000000000007" y="129.78"/>
                            <mxPoint x="133.67000000000007" y="99.78"/>
                            <mxPoint x="136.83000000000015" y="79.78"/>
                            <mxPoint x="173.67000000000007" y="49.78"/>
                            <mxPoint x="206.83000000000015" y="29.78"/>
                        </Array>
                    </mxGeometry>
                </mxCell>
                <mxCell id="RGgf09svHBlM94WwxJDz-48" value="" style="endArrow=classic;html=1;movable=1;resizable=1;rotatable=1;deletable=1;editable=1;connectable=1;" parent="RGgf09svHBlM94WwxJDz-78" edge="1">
                    <mxGeometry width="50" height="50" relative="1" as="geometry">
                        <mxPoint x="250" y="299.78" as="sourcePoint"/>
                        <mxPoint x="250" y="19.779999999999944" as="targetPoint"/>
                    </mxGeometry>
                </mxCell>
                <mxCell id="RGgf09svHBlM94WwxJDz-49" value="X&#39;" style="edgeLabel;html=1;align=center;verticalAlign=middle;resizable=1;points=[];movable=1;rotatable=1;deletable=1;editable=1;connectable=1;" parent="RGgf09svHBlM94WwxJDz-48" vertex="1" connectable="0">
                    <mxGeometry x="0.7699" relative="1" as="geometry">
                        <mxPoint y="-42" as="offset"/>
                    </mxGeometry>
                </mxCell>
                <mxCell id="RGgf09svHBlM94WwxJDz-50" value="" style="endArrow=classic;html=1;movable=1;resizable=1;rotatable=1;deletable=1;editable=1;connectable=1;" parent="RGgf09svHBlM94WwxJDz-78" edge="1">
                    <mxGeometry width="50" height="50" relative="1" as="geometry">
                        <mxPoint x="330" y="244.78" as="sourcePoint"/>
                        <mxPoint x="10" y="244.78" as="targetPoint"/>
                    </mxGeometry>
                </mxCell>
                <mxCell id="RGgf09svHBlM94WwxJDz-51" value="Y&#39;" style="edgeLabel;html=1;align=center;verticalAlign=middle;resizable=1;points=[];movable=1;rotatable=1;deletable=1;editable=1;connectable=1;" parent="RGgf09svHBlM94WwxJDz-50" vertex="1" connectable="0">
                    <mxGeometry x="0.5184" y="1" relative="1" as="geometry">
                        <mxPoint x="-67" y="-12" as="offset"/>
                    </mxGeometry>
                </mxCell>
                <mxCell id="RGgf09svHBlM94WwxJDz-42" value="" style="group;rotation=-45;" parent="RGgf09svHBlM94WwxJDz-78" vertex="1" connectable="0">
                    <mxGeometry x="221" y="214.78" width="90" height="79.51504137887548" as="geometry"/>
                </mxCell>
                <mxCell id="RGgf09svHBlM94WwxJDz-46" value="" style="group" parent="RGgf09svHBlM94WwxJDz-42" vertex="1" connectable="0">
                    <mxGeometry y="8" width="79.04218763112735" height="71.51504137887548" as="geometry"/>
                </mxCell>
                <mxCell id="RGgf09svHBlM94WwxJDz-38" value="" style="rounded=1;whiteSpace=wrap;html=1;rotation=0;movable=1;resizable=1;rotatable=1;deletable=1;editable=1;connectable=1;" parent="RGgf09svHBlM94WwxJDz-46" vertex="1">
                    <mxGeometry x="10.934393638170976" width="35.888911040894385" height="45.130305633924706" as="geometry"/>
                </mxCell>
                <mxCell id="RGgf09svHBlM94WwxJDz-39" value="" style="rounded=1;whiteSpace=wrap;html=1;rotation=0;movable=1;resizable=1;rotatable=1;deletable=1;editable=1;connectable=1;" parent="RGgf09svHBlM94WwxJDz-46" vertex="1">
                    <mxGeometry y="9.030000000000001" width="4.486113880111798" height="27.078183380354826" as="geometry"/>
                </mxCell>
                <mxCell id="RGgf09svHBlM94WwxJDz-40" value="" style="rounded=1;whiteSpace=wrap;html=1;rotation=0;movable=1;resizable=1;rotatable=1;deletable=1;editable=1;connectable=1;" parent="RGgf09svHBlM94WwxJDz-46" vertex="1">
                    <mxGeometry x="52.842942345924456" y="9.030000000000001" width="4.486113880111798" height="27.078183380354826" as="geometry"/>
                </mxCell>
                <mxCell id="RGgf09svHBlM94WwxJDz-41" value="" style="ellipse;whiteSpace=wrap;html=1;aspect=fixed;fillColor=#647687;fontColor=#ffffff;strokeColor=#314354;rotation=10;movable=1;resizable=1;rotatable=1;deletable=1;editable=1;connectable=1;" parent="RGgf09svHBlM94WwxJDz-46" vertex="1">
                    <mxGeometry x="24.85089463220676" y="17" width="8.926873641875213" height="8.926873641875213" as="geometry"/>
                </mxCell>
                <mxCell id="RGgf09svHBlM94WwxJDz-54" value="" style="curved=1;endArrow=oval;html=1;dashed=1;exitX=0.5;exitY=0;exitDx=0;exitDy=0;endFill=1;fillColor=#f8cecc;strokeColor=#b85450;entryX=0.3;entryY=0.041;entryDx=0;entryDy=0;entryPerimeter=0;labelBackgroundColor=none;" parent="RGgf09svHBlM94WwxJDz-78" source="RGgf09svHBlM94WwxJDz-41" target="RGgf09svHBlM94WwxJDz-62" edge="1">
                    <mxGeometry width="50" height="50" relative="1" as="geometry">
                        <mxPoint x="293.6700000000001" y="149.78" as="sourcePoint"/>
                        <mxPoint x="213.67000000000007" y="149.78" as="targetPoint"/>
                        <Array as="points">
                            <mxPoint x="243.67000000000007" y="179.77999999999997"/>
                            <mxPoint x="233.67000000000007" y="159.78"/>
                        </Array>
                    </mxGeometry>
                </mxCell>
                <mxCell id="RGgf09svHBlM94WwxJDz-79" value="$$(\hat{x}, \hat{y})$$" style="edgeLabel;html=1;align=center;verticalAlign=middle;resizable=0;points=[];labelBackgroundColor=none;" parent="RGgf09svHBlM94WwxJDz-54" vertex="1" connectable="0">
                    <mxGeometry x="0.1929" y="1" relative="1" as="geometry">
                        <mxPoint x="-40" y="-45" as="offset"/>
                    </mxGeometry>
                </mxCell>
                <mxCell id="RGgf09svHBlM94WwxJDz-55" value="" style="endArrow=baseDash;html=1;strokeWidth=1;fillColor=#dae8fc;strokeColor=#6c8ebf;rounded=1;jumpSize=8;jumpStyle=none;startArrow=baseDash;startFill=0;endFill=0;" parent="RGgf09svHBlM94WwxJDz-78" source="RGgf09svHBlM94WwxJDz-41" edge="1">
                    <mxGeometry width="50" height="50" relative="1" as="geometry">
                        <mxPoint x="213.67000000000007" y="229.78" as="sourcePoint"/>
                        <mxPoint x="210" y="149.78" as="targetPoint"/>
                    </mxGeometry>
                </mxCell>
                <mxCell id="RGgf09svHBlM94WwxJDz-61" value="ld" style="edgeLabel;html=1;align=center;verticalAlign=middle;resizable=0;points=[];" parent="RGgf09svHBlM94WwxJDz-55" vertex="1" connectable="0">
                    <mxGeometry x="0.3537" y="2" relative="1" as="geometry">
                        <mxPoint y="12" as="offset"/>
                    </mxGeometry>
                </mxCell>
                <mxCell id="RGgf09svHBlM94WwxJDz-64" value="" style="curved=1;endArrow=none;html=1;rounded=1;strokeColor=#6c8ebf;strokeWidth=1;jumpStyle=none;jumpSize=8;fillColor=#dae8fc;startArrow=classicThin;startFill=1;endFill=0;" parent="RGgf09svHBlM94WwxJDz-78" edge="1">
                    <mxGeometry width="50" height="50" relative="1" as="geometry">
                        <mxPoint x="210" y="134.78" as="sourcePoint"/>
                        <mxPoint x="250" y="124.78" as="targetPoint"/>
                        <Array as="points">
                            <mxPoint x="230" y="114.78"/>
                        </Array>
                    </mxGeometry>
                </mxCell>
                <mxCell id="RGgf09svHBlM94WwxJDz-66" value="$$\delta$$" style="edgeLabel;html=1;align=center;verticalAlign=middle;resizable=0;points=[];labelBackgroundColor=none;" parent="RGgf09svHBlM94WwxJDz-64" vertex="1" connectable="0">
                    <mxGeometry x="0.3498" y="-3" relative="1" as="geometry">
                        <mxPoint x="-1" y="9" as="offset"/>
                    </mxGeometry>
                </mxCell>
                <mxCell id="RGgf09svHBlM94WwxJDz-69" value="" style="curved=1;endArrow=classic;html=1;rounded=1;strokeColor=#6c8ebf;strokeWidth=1;jumpStyle=none;jumpSize=8;fillColor=#dae8fc;" parent="RGgf09svHBlM94WwxJDz-78" edge="1">
                    <mxGeometry width="50" height="50" relative="1" as="geometry">
                        <mxPoint x="120" y="244.78" as="sourcePoint"/>
                        <mxPoint x="110" y="204.77999999999997" as="targetPoint"/>
                        <Array as="points">
                            <mxPoint x="120" y="214.78"/>
                        </Array>
                    </mxGeometry>
                </mxCell>
                <mxCell id="RGgf09svHBlM94WwxJDz-70" value="$$\delta$$" style="edgeLabel;html=1;align=center;verticalAlign=middle;resizable=0;points=[];labelBackgroundColor=none;" parent="RGgf09svHBlM94WwxJDz-69" vertex="1" connectable="0">
                    <mxGeometry x="0.0177" relative="1" as="geometry">
                        <mxPoint x="-10" y="8" as="offset"/>
                    </mxGeometry>
                </mxCell>
                <mxCell id="RGgf09svHBlM94WwxJDz-67" value="ICR" style="endArrow=none;dashed=1;html=1;dashPattern=1 1;strokeWidth=1;rounded=1;strokeColor=#6c8ebf;jumpStyle=none;jumpSize=8;entryX=0.263;entryY=0.05;entryDx=0;entryDy=0;entryPerimeter=0;fillColor=#dae8fc;startArrow=oval;startFill=1;" parent="RGgf09svHBlM94WwxJDz-78" target="RGgf09svHBlM94WwxJDz-62" edge="1">
                    <mxGeometry x="-1" y="-10" width="50" height="50" relative="1" as="geometry">
                        <mxPoint x="50" y="244.78" as="sourcePoint"/>
                        <mxPoint x="130" y="174.78" as="targetPoint"/>
                        <mxPoint x="-5" y="2" as="offset"/>
                    </mxGeometry>
                </mxCell>
                <mxCell id="RGgf09svHBlM94WwxJDz-81" value="R" style="edgeLabel;html=1;align=center;verticalAlign=middle;resizable=0;points=[];" parent="RGgf09svHBlM94WwxJDz-67" vertex="1" connectable="0">
                    <mxGeometry x="0.1367" y="2" relative="1" as="geometry">
                        <mxPoint x="-14" y="-1" as="offset"/>
                    </mxGeometry>
                </mxCell>
                <mxCell id="RGgf09svHBlM94WwxJDz-73" value="" style="endArrow=none;dashed=1;html=1;dashPattern=1 1;strokeWidth=1;rounded=1;strokeColor=#6c8ebf;jumpStyle=none;jumpSize=8;fillColor=#dae8fc;entryX=0.304;entryY=0.038;entryDx=0;entryDy=0;entryPerimeter=0;" parent="RGgf09svHBlM94WwxJDz-78" target="RGgf09svHBlM94WwxJDz-62" edge="1">
                    <mxGeometry width="50" height="50" relative="1" as="geometry">
                        <mxPoint x="209" y="245.78" as="sourcePoint"/>
                        <mxPoint x="210" y="164.78" as="targetPoint"/>
                    </mxGeometry>
                </mxCell>
                <mxCell id="RGgf09svHBlM94WwxJDz-74" value="" style="endArrow=baseDash;html=1;rounded=1;strokeColor=#6c8ebf;strokeWidth=1;jumpStyle=none;jumpSize=8;startArrow=baseDash;startFill=0;endFill=0;fillColor=#dae8fc;" parent="RGgf09svHBlM94WwxJDz-78" edge="1">
                    <mxGeometry width="50" height="50" relative="1" as="geometry">
                        <mxPoint x="50" y="269.78" as="sourcePoint"/>
                        <mxPoint x="210" y="269.78" as="targetPoint"/>
                    </mxGeometry>
                </mxCell>
                <mxCell id="RGgf09svHBlM94WwxJDz-75" value="D" style="edgeLabel;html=1;align=center;verticalAlign=middle;resizable=0;points=[];" parent="RGgf09svHBlM94WwxJDz-74" vertex="1" connectable="0">
                    <mxGeometry x="-0.2452" relative="1" as="geometry">
                        <mxPoint x="20" y="6" as="offset"/>
                    </mxGeometry>
                </mxCell>
                <mxCell id="r7VjS9YqXIL3C1uOv69l-141" value="" style="rounded=0;whiteSpace=wrap;html=1;" parent="1" vertex="1">
                    <mxGeometry x="20" y="20" width="320" height="340" as="geometry"/>
                </mxCell>
                <mxCell id="r7VjS9YqXIL3C1uOv69l-135" value="" style="curved=1;endArrow=none;html=1;strokeWidth=4;endFill=0;movable=1;resizable=1;rotatable=1;deletable=1;editable=1;connectable=1;startArrow=oval;startFill=1;" parent="1" edge="1">
                    <mxGeometry width="50" height="50" relative="1" as="geometry">
                        <mxPoint x="680" y="712.5" as="sourcePoint"/>
                        <mxPoint x="960" y="483.44" as="targetPoint"/>
                        <Array as="points">
                            <mxPoint x="760" y="633.44"/>
                            <mxPoint x="810" y="613.44"/>
                            <mxPoint x="800" y="553.44"/>
                            <mxPoint x="790" y="523.44"/>
                            <mxPoint x="860" y="473.44"/>
                            <mxPoint x="910" y="463.44"/>
                        </Array>
                    </mxGeometry>
                </mxCell>
                <mxCell id="r7VjS9YqXIL3C1uOv69l-74" value="" style="endArrow=none;dashed=1;html=1;dashPattern=1 1;strokeWidth=2;movable=1;resizable=1;rotatable=1;deletable=1;editable=1;connectable=1;" parent="1" edge="1">
                    <mxGeometry width="50" height="50" relative="1" as="geometry">
                        <mxPoint x="620.5" y="130.94" as="sourcePoint"/>
                        <mxPoint x="740.5" y="250.94" as="targetPoint"/>
                    </mxGeometry>
                </mxCell>
                <mxCell id="r7VjS9YqXIL3C1uOv69l-4" value="" style="rounded=1;whiteSpace=wrap;html=1;rotation=-65;movable=1;resizable=1;rotatable=1;deletable=1;editable=1;connectable=1;" parent="1" vertex="1">
                    <mxGeometry x="121.00449213879716" y="169.94" width="184.82999999999987" height="62.82" as="geometry"/>
                </mxCell>
                <mxCell id="r7VjS9YqXIL3C1uOv69l-1" value="" style="endArrow=classic;html=1;movable=1;resizable=1;rotatable=1;deletable=1;editable=1;connectable=1;" parent="1" edge="1">
                    <mxGeometry width="50" height="50" relative="1" as="geometry">
                        <mxPoint x="40" y="330.94" as="sourcePoint"/>
                        <mxPoint x="40" y="50.94" as="targetPoint"/>
                    </mxGeometry>
                </mxCell>
                <mxCell id="r7VjS9YqXIL3C1uOv69l-23" value="Z" style="edgeLabel;html=1;align=center;verticalAlign=middle;resizable=1;points=[];movable=1;rotatable=1;deletable=1;editable=1;connectable=1;" parent="r7VjS9YqXIL3C1uOv69l-1" vertex="1" connectable="0">
                    <mxGeometry x="0.7699" relative="1" as="geometry">
                        <mxPoint y="-42" as="offset"/>
                    </mxGeometry>
                </mxCell>
                <mxCell id="r7VjS9YqXIL3C1uOv69l-2" value="" style="endArrow=classic;html=1;movable=1;resizable=1;rotatable=1;deletable=1;editable=1;connectable=1;" parent="1" edge="1">
                    <mxGeometry width="50" height="50" relative="1" as="geometry">
                        <mxPoint x="40" y="330.94" as="sourcePoint"/>
                        <mxPoint x="320" y="330.94" as="targetPoint"/>
                    </mxGeometry>
                </mxCell>
                <mxCell id="r7VjS9YqXIL3C1uOv69l-24" value="X" style="edgeLabel;html=1;align=center;verticalAlign=middle;resizable=1;points=[];movable=1;rotatable=1;deletable=1;editable=1;connectable=1;" parent="r7VjS9YqXIL3C1uOv69l-2" vertex="1" connectable="0">
                    <mxGeometry x="0.5184" y="1" relative="1" as="geometry">
                        <mxPoint x="74" y="1" as="offset"/>
                    </mxGeometry>
                </mxCell>
                <mxCell id="r7VjS9YqXIL3C1uOv69l-3" value="" style="ellipse;whiteSpace=wrap;html=1;aspect=fixed;container=0;movable=1;resizable=1;rotatable=1;deletable=1;editable=1;connectable=1;" parent="1" vertex="1">
                    <mxGeometry x="130" y="250.94" width="80" height="80" as="geometry"/>
                </mxCell>
                <mxCell id="r7VjS9YqXIL3C1uOv69l-11" value="" style="endArrow=none;dashed=1;html=1;strokeWidth=2;dashPattern=1 1;movable=1;resizable=1;rotatable=1;deletable=1;editable=1;connectable=1;" parent="1" edge="1">
                    <mxGeometry width="50" height="50" relative="1" as="geometry">
                        <mxPoint x="170" y="290.94" as="sourcePoint"/>
                        <mxPoint x="170" y="50.94" as="targetPoint"/>
                    </mxGeometry>
                </mxCell>
                <mxCell id="r7VjS9YqXIL3C1uOv69l-6" value="" style="endArrow=none;html=1;strokeWidth=2;movable=1;resizable=1;rotatable=1;deletable=1;editable=1;connectable=1;endFill=0;startArrow=classic;startFill=1;" parent="1" edge="1">
                    <mxGeometry width="50" height="50" relative="1" as="geometry">
                        <mxPoint x="283" y="50.94" as="sourcePoint"/>
                        <mxPoint x="170" y="290.94" as="targetPoint"/>
                    </mxGeometry>
                </mxCell>
                <mxCell id="b8j8sX9C9uJOOnNy8c7S-10" value="Z&#39;" style="edgeLabel;html=1;align=center;verticalAlign=middle;resizable=0;points=[];" parent="r7VjS9YqXIL3C1uOv69l-6" vertex="1" connectable="0">
                    <mxGeometry x="-0.9396" y="-1" relative="1" as="geometry">
                        <mxPoint x="11" y="-18" as="offset"/>
                    </mxGeometry>
                </mxCell>
                <mxCell id="r7VjS9YqXIL3C1uOv69l-7" value="" style="ellipse;whiteSpace=wrap;html=1;aspect=fixed;rotation=25;movable=1;resizable=1;rotatable=1;deletable=1;editable=1;connectable=1;fillColor=#647687;fontColor=#ffffff;strokeColor=#314354;" parent="1" vertex="1">
                    <mxGeometry x="223.00449213879716" y="133.94" width="29.999999999999975" height="29.999999999999975" as="geometry"/>
                </mxCell>
                <mxCell id="r7VjS9YqXIL3C1uOv69l-16" value="" style="endArrow=none;dashed=1;html=1;dashPattern=1 1;strokeWidth=2;movable=1;resizable=1;rotatable=1;deletable=1;editable=1;connectable=1;" parent="1" edge="1">
                    <mxGeometry width="50" height="50" relative="1" as="geometry">
                        <mxPoint x="40" y="290" as="sourcePoint"/>
                        <mxPoint x="320" y="290.94" as="targetPoint"/>
                    </mxGeometry>
                </mxCell>
                <mxCell id="r7VjS9YqXIL3C1uOv69l-39" value="" style="endArrow=classic;html=1;movable=1;resizable=1;rotatable=1;deletable=1;editable=1;connectable=1;" parent="1" edge="1">
                    <mxGeometry width="50" height="50" relative="1" as="geometry">
                        <mxPoint x="530.5" y="329.27" as="sourcePoint"/>
                        <mxPoint x="530.5" y="49.26999999999988" as="targetPoint"/>
                    </mxGeometry>
                </mxCell>
                <mxCell id="r7VjS9YqXIL3C1uOv69l-40" value="Y" style="edgeLabel;html=1;align=center;verticalAlign=middle;resizable=1;points=[];movable=1;rotatable=1;deletable=1;editable=1;connectable=1;" parent="r7VjS9YqXIL3C1uOv69l-39" vertex="1" connectable="0">
                    <mxGeometry x="0.7699" relative="1" as="geometry">
                        <mxPoint y="-42" as="offset"/>
                    </mxGeometry>
                </mxCell>
                <mxCell id="r7VjS9YqXIL3C1uOv69l-62" value="" style="endArrow=classic;html=1;exitX=0.5;exitY=0;exitDx=0;exitDy=0;movable=1;resizable=1;rotatable=1;deletable=1;editable=1;connectable=1;" parent="1" source="r7VjS9YqXIL3C1uOv69l-49" edge="1">
                    <mxGeometry width="50" height="50" relative="1" as="geometry">
                        <mxPoint x="730.5" y="359.94" as="sourcePoint"/>
                        <mxPoint x="740.5" y="130.94" as="targetPoint"/>
                    </mxGeometry>
                </mxCell>
                <mxCell id="r7VjS9YqXIL3C1uOv69l-75" value="X&#39;" style="edgeLabel;html=1;align=center;verticalAlign=middle;resizable=1;points=[];movable=1;rotatable=1;deletable=1;editable=1;connectable=1;" parent="r7VjS9YqXIL3C1uOv69l-62" vertex="1" connectable="0">
                    <mxGeometry x="0.9065" y="-1" relative="1" as="geometry">
                        <mxPoint x="2" y="-13" as="offset"/>
                    </mxGeometry>
                </mxCell>
                <mxCell id="r7VjS9YqXIL3C1uOv69l-63" value="" style="endArrow=classic;html=1;movable=1;resizable=1;rotatable=1;deletable=1;editable=1;connectable=1;" parent="1" edge="1">
                    <mxGeometry width="50" height="50" relative="1" as="geometry">
                        <mxPoint x="610.5" y="120.94" as="sourcePoint"/>
                        <mxPoint x="590.5" y="100.94" as="targetPoint"/>
                    </mxGeometry>
                </mxCell>
                <mxCell id="r7VjS9YqXIL3C1uOv69l-77" value="Y&#39;" style="edgeLabel;html=1;align=center;verticalAlign=middle;resizable=1;points=[];movable=1;rotatable=1;deletable=1;editable=1;connectable=1;" parent="r7VjS9YqXIL3C1uOv69l-63" vertex="1" connectable="0">
                    <mxGeometry x="0.8498" relative="1" as="geometry">
                        <mxPoint x="-12" y="-2" as="offset"/>
                    </mxGeometry>
                </mxCell>
                <mxCell id="r7VjS9YqXIL3C1uOv69l-43" value="" style="rounded=1;whiteSpace=wrap;html=1;rotation=45;movable=1;resizable=1;rotatable=1;deletable=1;editable=1;connectable=1;" parent="1" vertex="1">
                    <mxGeometry x="640.5" y="139.94" width="80" height="100" as="geometry"/>
                </mxCell>
                <mxCell id="r7VjS9YqXIL3C1uOv69l-44" value="" style="rounded=1;whiteSpace=wrap;html=1;rotation=45;movable=1;resizable=1;rotatable=1;deletable=1;editable=1;connectable=1;" parent="1" vertex="1">
                    <mxGeometry x="636.5" y="120.94" width="10" height="60" as="geometry"/>
                </mxCell>
                <mxCell id="r7VjS9YqXIL3C1uOv69l-45" value="" style="rounded=1;whiteSpace=wrap;html=1;rotation=45;movable=1;resizable=1;rotatable=1;deletable=1;editable=1;connectable=1;" parent="1" vertex="1">
                    <mxGeometry x="714.5" y="198.94" width="10" height="60" as="geometry"/>
                </mxCell>
                <mxCell id="r7VjS9YqXIL3C1uOv69l-49" value="" style="ellipse;whiteSpace=wrap;html=1;aspect=fixed;fillColor=#647687;fontColor=#ffffff;strokeColor=#314354;rotation=45;movable=1;resizable=1;rotatable=1;deletable=1;editable=1;connectable=1;" parent="1" vertex="1">
                    <mxGeometry x="670.5" y="179.94" width="20" height="20" as="geometry"/>
                </mxCell>
                <mxCell id="r7VjS9YqXIL3C1uOv69l-70" value="" style="endArrow=classic;html=1;strokeWidth=1;exitX=0.5;exitY=0;exitDx=0;exitDy=0;movable=1;resizable=1;rotatable=1;deletable=1;editable=1;connectable=1;" parent="1" source="r7VjS9YqXIL3C1uOv69l-44" edge="1">
                    <mxGeometry width="50" height="50" relative="1" as="geometry">
                        <mxPoint x="670.5" y="120.94" as="sourcePoint"/>
                        <mxPoint x="690.5" y="100.94" as="targetPoint"/>
                    </mxGeometry>
                </mxCell>
                <mxCell id="r7VjS9YqXIL3C1uOv69l-78" value="$$v_L$$" style="edgeLabel;html=1;align=center;verticalAlign=middle;resizable=1;points=[];movable=1;rotatable=1;deletable=1;editable=1;connectable=1;" parent="r7VjS9YqXIL3C1uOv69l-70" vertex="1" connectable="0">
                    <mxGeometry x="0.7459" y="2" relative="1" as="geometry">
                        <mxPoint x="15" y="-8" as="offset"/>
                    </mxGeometry>
                </mxCell>
                <mxCell id="r7VjS9YqXIL3C1uOv69l-71" value="" style="endArrow=classic;html=1;strokeWidth=1;exitX=0.5;exitY=0;exitDx=0;exitDy=0;movable=1;resizable=1;rotatable=1;deletable=1;editable=1;connectable=1;" parent="1" edge="1">
                    <mxGeometry width="50" height="50" relative="1" as="geometry">
                        <mxPoint x="740.5032034355963" y="208.72679656440351" as="sourcePoint"/>
                        <mxPoint x="768.29" y="179.94" as="targetPoint"/>
                    </mxGeometry>
                </mxCell>
                <mxCell id="r7VjS9YqXIL3C1uOv69l-79" value="$$v_R$$" style="edgeLabel;html=1;align=center;verticalAlign=middle;resizable=1;points=[];movable=1;rotatable=1;deletable=1;editable=1;connectable=1;" parent="r7VjS9YqXIL3C1uOv69l-71" vertex="1" connectable="0">
                    <mxGeometry x="0.7312" relative="1" as="geometry">
                        <mxPoint x="11" y="-4" as="offset"/>
                    </mxGeometry>
                </mxCell>
                <mxCell id="r7VjS9YqXIL3C1uOv69l-72" value="" style="endArrow=classic;html=1;strokeWidth=1;exitX=0.539;exitY=-0.027;exitDx=0;exitDy=0;exitPerimeter=0;movable=1;resizable=1;rotatable=1;deletable=1;editable=1;connectable=1;" parent="1" source="r7VjS9YqXIL3C1uOv69l-49" edge="1">
                    <mxGeometry width="50" height="50" relative="1" as="geometry">
                        <mxPoint x="690.5" y="181.76" as="sourcePoint"/>
                        <mxPoint x="710.5" y="159.94" as="targetPoint"/>
                    </mxGeometry>
                </mxCell>
                <mxCell id="r7VjS9YqXIL3C1uOv69l-85" value="$$v_b$$" style="edgeLabel;html=1;align=center;verticalAlign=middle;resizable=1;points=[];movable=1;rotatable=1;deletable=1;editable=1;connectable=1;" parent="r7VjS9YqXIL3C1uOv69l-72" vertex="1" connectable="0">
                    <mxGeometry x="0.5807" y="-1" relative="1" as="geometry">
                        <mxPoint x="-20" y="-9" as="offset"/>
                    </mxGeometry>
                </mxCell>
                <mxCell id="r7VjS9YqXIL3C1uOv69l-80" value="" style="curved=1;endArrow=classic;html=1;strokeWidth=1;movable=1;resizable=1;rotatable=1;deletable=1;editable=1;connectable=1;" parent="1" edge="1">
                    <mxGeometry width="50" height="50" relative="1" as="geometry">
                        <mxPoint x="730.5" y="259.94" as="sourcePoint"/>
                        <mxPoint x="750.5" y="240.94" as="targetPoint"/>
                        <Array as="points">
                            <mxPoint x="730.5" y="239.94"/>
                        </Array>
                    </mxGeometry>
                </mxCell>
                <mxCell id="r7VjS9YqXIL3C1uOv69l-82" value="" style="curved=1;endArrow=classic;html=1;strokeWidth=1;movable=1;resizable=1;rotatable=1;deletable=1;editable=1;connectable=1;" parent="1" edge="1">
                    <mxGeometry width="50" height="50" relative="1" as="geometry">
                        <mxPoint x="620.5" y="150.93999999999994" as="sourcePoint"/>
                        <mxPoint x="640.5" y="131.94000000000005" as="targetPoint"/>
                        <Array as="points">
                            <mxPoint x="620.5" y="130.94"/>
                        </Array>
                    </mxGeometry>
                </mxCell>
                <mxCell id="r7VjS9YqXIL3C1uOv69l-84" value="$$\omega_L$$" style="edgeLabel;html=1;align=center;verticalAlign=middle;resizable=1;points=[];movable=1;rotatable=1;deletable=1;editable=1;connectable=1;" parent="r7VjS9YqXIL3C1uOv69l-82" vertex="1" connectable="0">
                    <mxGeometry x="0.7465" relative="1" as="geometry">
                        <mxPoint x="-30" y="8" as="offset"/>
                    </mxGeometry>
                </mxCell>
                <mxCell id="r7VjS9YqXIL3C1uOv69l-86" value="" style="curved=1;endArrow=classic;html=1;strokeWidth=1;movable=1;resizable=1;rotatable=1;deletable=1;editable=1;connectable=1;" parent="1" edge="1">
                    <mxGeometry width="50" height="50" relative="1" as="geometry">
                        <mxPoint x="684.5" y="207.41" as="sourcePoint"/>
                        <mxPoint x="694.5" y="186" as="targetPoint"/>
                        <Array as="points">
                            <mxPoint x="691.5" y="208.41"/>
                            <mxPoint x="700.5" y="204.32"/>
                            <mxPoint x="700.5" y="194.32"/>
                        </Array>
                    </mxGeometry>
                </mxCell>
                <mxCell id="r7VjS9YqXIL3C1uOv69l-87" value="$$\omega_b$$" style="edgeLabel;html=1;align=center;verticalAlign=middle;resizable=1;points=[];movable=1;rotatable=1;deletable=1;editable=1;connectable=1;" parent="r7VjS9YqXIL3C1uOv69l-86" vertex="1" connectable="0">
                    <mxGeometry x="0.7514" y="2" relative="1" as="geometry">
                        <mxPoint x="15" y="-1" as="offset"/>
                    </mxGeometry>
                </mxCell>
                <mxCell id="r7VjS9YqXIL3C1uOv69l-88" value="" style="endArrow=classic;startArrow=classic;html=1;strokeWidth=1;movable=1;resizable=1;rotatable=1;deletable=1;editable=1;connectable=1;" parent="1" edge="1">
                    <mxGeometry width="50" height="50" relative="1" as="geometry">
                        <mxPoint x="592.5" y="199.94" as="sourcePoint"/>
                        <mxPoint x="670.5" y="278.94" as="targetPoint"/>
                    </mxGeometry>
                </mxCell>
                <mxCell id="r7VjS9YqXIL3C1uOv69l-89" value="D" style="edgeLabel;html=1;align=center;verticalAlign=middle;resizable=1;points=[];movable=1;rotatable=1;deletable=1;editable=1;connectable=1;" parent="r7VjS9YqXIL3C1uOv69l-88" vertex="1" connectable="0">
                    <mxGeometry x="0.0172" y="-1" relative="1" as="geometry">
                        <mxPoint x="-4" y="8" as="offset"/>
                    </mxGeometry>
                </mxCell>
                <mxCell id="r7VjS9YqXIL3C1uOv69l-90" value="" style="endArrow=classic;startArrow=classic;html=1;strokeWidth=1;movable=1;resizable=1;rotatable=1;deletable=1;editable=1;connectable=1;" parent="1" edge="1">
                    <mxGeometry width="50" height="50" relative="1" as="geometry">
                        <mxPoint x="70" y="290.94" as="sourcePoint"/>
                        <mxPoint x="140" y="150" as="targetPoint"/>
                    </mxGeometry>
                </mxCell>
                <mxCell id="r7VjS9YqXIL3C1uOv69l-91" value="L" style="edgeLabel;html=1;align=center;verticalAlign=middle;resizable=1;points=[];movable=1;rotatable=1;deletable=1;editable=1;connectable=1;" parent="r7VjS9YqXIL3C1uOv69l-90" vertex="1" connectable="0">
                    <mxGeometry x="0.0226" y="-1" relative="1" as="geometry">
                        <mxPoint x="-12" y="-8" as="offset"/>
                    </mxGeometry>
                </mxCell>
                <mxCell id="r7VjS9YqXIL3C1uOv69l-92" value="" style="endArrow=classic;startArrow=classic;html=1;strokeWidth=1;movable=1;resizable=1;rotatable=1;deletable=1;editable=1;connectable=1;" parent="1" edge="1">
                    <mxGeometry width="50" height="50" relative="1" as="geometry">
                        <mxPoint x="70" y="330.94" as="sourcePoint"/>
                        <mxPoint x="70" y="290.94" as="targetPoint"/>
                    </mxGeometry>
                </mxCell>
                <mxCell id="r7VjS9YqXIL3C1uOv69l-93" value="R" style="edgeLabel;html=1;align=center;verticalAlign=middle;resizable=1;points=[];movable=1;rotatable=1;deletable=1;editable=1;connectable=1;" parent="r7VjS9YqXIL3C1uOv69l-92" vertex="1" connectable="0">
                    <mxGeometry x="0.2015" relative="1" as="geometry">
                        <mxPoint x="13" as="offset"/>
                    </mxGeometry>
                </mxCell>
                <mxCell id="r7VjS9YqXIL3C1uOv69l-95" value="$$M_w$$" style="text;html=1;align=center;verticalAlign=middle;resizable=1;points=[];autosize=1;strokeColor=none;fillColor=none;movable=1;rotatable=1;deletable=1;editable=1;connectable=1;" parent="1" vertex="1">
                    <mxGeometry x="130" y="290.94" width="80" height="30" as="geometry"/>
                </mxCell>
                <mxCell id="r7VjS9YqXIL3C1uOv69l-97" value="$$y_g$$" style="endArrow=none;dashed=1;html=1;dashPattern=1 1;strokeWidth=2;movable=1;resizable=1;rotatable=1;deletable=1;editable=1;connectable=1;" parent="1" edge="1">
                    <mxGeometry x="1" y="10" width="50" height="50" relative="1" as="geometry">
                        <mxPoint x="670.5" y="190" as="sourcePoint"/>
                        <mxPoint x="530.5" y="190.94" as="targetPoint"/>
                        <Array as="points">
                            <mxPoint x="590.5" y="190.94"/>
                        </Array>
                        <mxPoint x="-10" y="-10" as="offset"/>
                    </mxGeometry>
                </mxCell>
                <mxCell id="r7VjS9YqXIL3C1uOv69l-100" value="" style="curved=1;endArrow=classic;html=1;strokeWidth=1;movable=1;resizable=1;rotatable=1;deletable=1;editable=1;connectable=1;" parent="1" edge="1">
                    <mxGeometry width="50" height="50" relative="1" as="geometry">
                        <mxPoint x="170" y="90.94" as="sourcePoint"/>
                        <mxPoint x="261" y="95" as="targetPoint"/>
                        <Array as="points">
                            <mxPoint x="220" y="40.94"/>
                        </Array>
                    </mxGeometry>
                </mxCell>
                <mxCell id="r7VjS9YqXIL3C1uOv69l-101" value="$$\theta$$" style="edgeLabel;html=1;align=center;verticalAlign=middle;resizable=1;points=[];movable=1;rotatable=1;deletable=1;editable=1;connectable=1;" parent="r7VjS9YqXIL3C1uOv69l-100" vertex="1" connectable="0">
                    <mxGeometry x="-0.2523" y="-14" relative="1" as="geometry">
                        <mxPoint x="-2" y="21" as="offset"/>
                    </mxGeometry>
                </mxCell>
                <mxCell id="r7VjS9YqXIL3C1uOv69l-114" value="" style="group;rotation=0;movable=1;resizable=1;rotatable=1;deletable=1;editable=1;connectable=1;" parent="1" vertex="1" connectable="0">
                    <mxGeometry x="760" y="493.44" width="57.54" height="57.54" as="geometry"/>
                </mxCell>
                <mxCell id="r7VjS9YqXIL3C1uOv69l-110" value="" style="rounded=1;whiteSpace=wrap;html=1;rotation=45;movable=1;resizable=1;rotatable=1;deletable=1;editable=1;connectable=1;" parent="r7VjS9YqXIL3C1uOv69l-114" vertex="1">
                    <mxGeometry x="22" width="36.10424450713975" height="45.130305633924706" as="geometry"/>
                </mxCell>
                <mxCell id="r7VjS9YqXIL3C1uOv69l-111" value="" style="rounded=1;whiteSpace=wrap;html=1;rotation=45;movable=1;resizable=1;rotatable=1;deletable=1;editable=1;connectable=1;" parent="r7VjS9YqXIL3C1uOv69l-114" vertex="1">
                    <mxGeometry x="20" y="-9" width="4.513030563392468" height="27.078183380354826" as="geometry"/>
                </mxCell>
                <mxCell id="r7VjS9YqXIL3C1uOv69l-112" value="" style="rounded=1;whiteSpace=wrap;html=1;rotation=45;movable=1;resizable=1;rotatable=1;deletable=1;editable=1;connectable=1;" parent="r7VjS9YqXIL3C1uOv69l-114" vertex="1">
                    <mxGeometry x="56" y="26" width="4.513030563392468" height="27.078183380354826" as="geometry"/>
                </mxCell>
                <mxCell id="r7VjS9YqXIL3C1uOv69l-113" value="" style="ellipse;whiteSpace=wrap;html=1;aspect=fixed;fillColor=#647687;fontColor=#ffffff;strokeColor=#314354;rotation=93;movable=1;resizable=1;rotatable=1;deletable=1;editable=1;connectable=1;" parent="r7VjS9YqXIL3C1uOv69l-114" vertex="1">
                    <mxGeometry x="36" y="18" width="9.026061126784937" height="9.026061126784937" as="geometry"/>
                </mxCell>
                <mxCell id="r7VjS9YqXIL3C1uOv69l-119" value="" style="group;rotation=10;movable=1;resizable=1;rotatable=1;deletable=1;editable=1;connectable=1;" parent="1" vertex="1" connectable="0">
                    <mxGeometry x="690" y="643.44" width="57.54" height="57.54" as="geometry"/>
                </mxCell>
                <mxCell id="r7VjS9YqXIL3C1uOv69l-120" value="" style="rounded=1;whiteSpace=wrap;html=1;rotation=55;movable=1;resizable=1;rotatable=1;deletable=1;editable=1;connectable=1;" parent="r7VjS9YqXIL3C1uOv69l-119" vertex="1">
                    <mxGeometry x="23" y="2" width="36.10424450713975" height="45.130305633924706" as="geometry"/>
                </mxCell>
                <mxCell id="r7VjS9YqXIL3C1uOv69l-121" value="" style="rounded=1;whiteSpace=wrap;html=1;rotation=55;movable=1;resizable=1;rotatable=1;deletable=1;editable=1;connectable=1;" parent="r7VjS9YqXIL3C1uOv69l-119" vertex="1">
                    <mxGeometry x="25" y="-10" width="4.513030563392468" height="27.078183380354826" as="geometry"/>
                </mxCell>
                <mxCell id="r7VjS9YqXIL3C1uOv69l-122" value="" style="rounded=1;whiteSpace=wrap;html=1;rotation=55;movable=1;resizable=1;rotatable=1;deletable=1;editable=1;connectable=1;" parent="r7VjS9YqXIL3C1uOv69l-119" vertex="1">
                    <mxGeometry x="53" y="31" width="4.513030563392468" height="27.078183380354826" as="geometry"/>
                </mxCell>
                <mxCell id="r7VjS9YqXIL3C1uOv69l-123" value="" style="ellipse;whiteSpace=wrap;html=1;aspect=fixed;fillColor=#647687;fontColor=#ffffff;strokeColor=#314354;rotation=55;movable=1;resizable=1;rotatable=1;deletable=1;editable=1;connectable=1;" parent="r7VjS9YqXIL3C1uOv69l-119" vertex="1">
                    <mxGeometry x="37" y="20" width="9.026061126784937" height="9.026061126784937" as="geometry"/>
                </mxCell>
                <mxCell id="r7VjS9YqXIL3C1uOv69l-124" value="" style="group;rotation=-30;movable=1;resizable=1;rotatable=1;deletable=1;editable=1;connectable=1;" parent="1" vertex="1" connectable="0">
                    <mxGeometry x="760" y="593.44" width="57.54" height="57.54" as="geometry"/>
                </mxCell>
                <mxCell id="r7VjS9YqXIL3C1uOv69l-125" value="" style="rounded=1;whiteSpace=wrap;html=1;rotation=15;movable=1;resizable=1;rotatable=1;deletable=1;editable=1;connectable=1;" parent="r7VjS9YqXIL3C1uOv69l-124" vertex="1">
                    <mxGeometry x="17.58025646055381" y="-5.080496744050092" width="36.10424450713975" height="45.130305633924706" as="geometry"/>
                </mxCell>
                <mxCell id="r7VjS9YqXIL3C1uOv69l-126" value="" style="rounded=1;whiteSpace=wrap;html=1;rotation=15;movable=1;resizable=1;rotatable=1;deletable=1;editable=1;connectable=1;" parent="r7VjS9YqXIL3C1uOv69l-124" vertex="1">
                    <mxGeometry x="9.005498390108114" y="-2.823981462353856" width="4.513030563392468" height="27.078183380354826" as="geometry"/>
                </mxCell>
                <mxCell id="r7VjS9YqXIL3C1uOv69l-127" value="" style="rounded=1;whiteSpace=wrap;html=1;rotation=15;movable=1;resizable=1;rotatable=1;deletable=1;editable=1;connectable=1;" parent="r7VjS9YqXIL3C1uOv69l-124" vertex="1">
                    <mxGeometry x="57.29492541840753" y="10.263807171484311" width="4.513030563392468" height="27.078183380354826" as="geometry"/>
                </mxCell>
                <mxCell id="r7VjS9YqXIL3C1uOv69l-128" value="" style="ellipse;whiteSpace=wrap;html=1;aspect=fixed;fillColor=#647687;fontColor=#ffffff;strokeColor=#314354;rotation=15;movable=1;resizable=1;rotatable=1;deletable=1;editable=1;connectable=1;" parent="r7VjS9YqXIL3C1uOv69l-124" vertex="1">
                    <mxGeometry x="31.11934815073121" y="12.971625509519793" width="9.026061126784937" height="9.026061126784937" as="geometry"/>
                </mxCell>
                <mxCell id="r7VjS9YqXIL3C1uOv69l-130" value="" style="group;rotation=34;movable=1;resizable=1;rotatable=1;deletable=1;editable=1;connectable=1;" parent="1" vertex="1" connectable="0">
                    <mxGeometry x="840" y="443.44" width="57.54" height="57.54" as="geometry"/>
                </mxCell>
                <mxCell id="r7VjS9YqXIL3C1uOv69l-131" value="" style="rounded=1;whiteSpace=wrap;html=1;rotation=79;movable=1;resizable=1;rotatable=1;deletable=1;editable=1;connectable=1;" parent="r7VjS9YqXIL3C1uOv69l-130" vertex="1">
                    <mxGeometry x="24" y="7" width="36.10424450713975" height="45.130305633924706" as="geometry"/>
                </mxCell>
                <mxCell id="r7VjS9YqXIL3C1uOv69l-132" value="" style="rounded=1;whiteSpace=wrap;html=1;rotation=79;movable=1;resizable=1;rotatable=1;deletable=1;editable=1;connectable=1;" parent="r7VjS9YqXIL3C1uOv69l-130" vertex="1">
                    <mxGeometry x="35" y="-8" width="4.513030563392468" height="27.078183380354826" as="geometry"/>
                </mxCell>
                <mxCell id="r7VjS9YqXIL3C1uOv69l-133" value="" style="rounded=1;whiteSpace=wrap;html=1;rotation=79;movable=1;resizable=1;rotatable=1;deletable=1;editable=1;connectable=1;" parent="r7VjS9YqXIL3C1uOv69l-130" vertex="1">
                    <mxGeometry x="44" y="41" width="4.513030563392468" height="27.078183380354826" as="geometry"/>
                </mxCell>
                <mxCell id="r7VjS9YqXIL3C1uOv69l-134" value="" style="ellipse;whiteSpace=wrap;html=1;aspect=fixed;fillColor=#647687;fontColor=#ffffff;strokeColor=#314354;rotation=79;movable=1;resizable=1;rotatable=1;deletable=1;editable=1;connectable=1;" parent="r7VjS9YqXIL3C1uOv69l-130" vertex="1">
                    <mxGeometry x="37" y="25" width="9.026061126784937" height="9.026061126784937" as="geometry"/>
                </mxCell>
                <mxCell id="b8j8sX9C9uJOOnNy8c7S-8" value="$$J_w$$" style="text;html=1;align=center;verticalAlign=middle;resizable=0;points=[];autosize=1;strokeColor=none;fillColor=none;" parent="1" vertex="1">
                    <mxGeometry x="160" y="290.94" width="70" height="30" as="geometry"/>
                </mxCell>
                <mxCell id="b8j8sX9C9uJOOnNy8c7S-9" value="" style="endArrow=none;dashed=1;html=1;dashPattern=1 1;strokeWidth=2;movable=1;resizable=1;rotatable=1;deletable=1;editable=1;connectable=1;entryX=0.063;entryY=0.689;entryDx=0;entryDy=0;entryPerimeter=0;" parent="1" target="r7VjS9YqXIL3C1uOv69l-7" edge="1">
                    <mxGeometry width="50" height="50" relative="1" as="geometry">
                        <mxPoint x="40" y="149" as="sourcePoint"/>
                        <mxPoint x="320" y="140.88000000000005" as="targetPoint"/>
                    </mxGeometry>
                </mxCell>
                <mxCell id="b8j8sX9C9uJOOnNy8c7S-12" value="$$J_b$$" style="text;html=1;align=center;verticalAlign=middle;resizable=0;points=[];autosize=1;strokeColor=none;fillColor=none;" parent="1" vertex="1">
                    <mxGeometry x="250" y="139.94" width="70" height="30" as="geometry"/>
                </mxCell>
                <mxCell id="b8j8sX9C9uJOOnNy8c7S-14" value="$$M_b$$" style="text;html=1;align=center;verticalAlign=middle;resizable=0;points=[];autosize=1;strokeColor=none;fillColor=none;" parent="1" vertex="1">
                    <mxGeometry x="203" y="135.94" width="70" height="30" as="geometry"/>
                </mxCell>
                <mxCell id="b8j8sX9C9uJOOnNy8c7S-15" value="&lt;span style=&quot;color: rgb(0, 0, 0); font-family: Helvetica; font-size: 11px; font-style: normal; font-variant-ligatures: normal; font-variant-caps: normal; font-weight: 400; letter-spacing: normal; orphans: 2; text-align: center; text-indent: 0px; text-transform: none; widows: 2; word-spacing: 0px; -webkit-text-stroke-width: 0px; background-color: rgb(255, 255, 255); text-decoration-thickness: initial; text-decoration-style: initial; text-decoration-color: initial; float: none; display: inline !important;&quot;&gt;$$\omega_R$$&lt;/span&gt;" style="text;whiteSpace=wrap;html=1;" parent="1" vertex="1">
                    <mxGeometry x="755.5" y="210.94" width="20" height="40" as="geometry"/>
                </mxCell>
                <mxCell id="r7VjS9YqXIL3C1uOv69l-102" value="" style="endArrow=classic;html=1;movable=1;resizable=1;rotatable=1;deletable=1;editable=1;connectable=1;" parent="1" edge="1">
                    <mxGeometry width="50" height="50" relative="1" as="geometry">
                        <mxPoint x="680" y="712.5699999999999" as="sourcePoint"/>
                        <mxPoint x="680" y="432.56999999999994" as="targetPoint"/>
                    </mxGeometry>
                </mxCell>
                <mxCell id="r7VjS9YqXIL3C1uOv69l-103" value="Y" style="edgeLabel;html=1;align=center;verticalAlign=middle;resizable=1;points=[];movable=1;rotatable=1;deletable=1;editable=1;connectable=1;" parent="r7VjS9YqXIL3C1uOv69l-102" vertex="1" connectable="0">
                    <mxGeometry x="0.7699" relative="1" as="geometry">
                        <mxPoint y="-42" as="offset"/>
                    </mxGeometry>
                </mxCell>
                <mxCell id="r7VjS9YqXIL3C1uOv69l-104" value="" style="endArrow=classic;html=1;movable=1;resizable=1;rotatable=1;deletable=1;editable=1;connectable=1;" parent="1" edge="1">
                    <mxGeometry width="50" height="50" relative="1" as="geometry">
                        <mxPoint x="680" y="712.5699999999999" as="sourcePoint"/>
                        <mxPoint x="960" y="712.5699999999999" as="targetPoint"/>
                    </mxGeometry>
                </mxCell>
                <mxCell id="r7VjS9YqXIL3C1uOv69l-105" value="X" style="edgeLabel;html=1;align=center;verticalAlign=middle;resizable=1;points=[];movable=1;rotatable=1;deletable=1;editable=1;connectable=1;" parent="r7VjS9YqXIL3C1uOv69l-104" vertex="1" connectable="0">
                    <mxGeometry x="0.5184" y="1" relative="1" as="geometry">
                        <mxPoint x="77" y="1" as="offset"/>
                    </mxGeometry>
                </mxCell>
                <mxCell id="b8j8sX9C9uJOOnNy8c7S-16" value="G" style="text;html=1;align=center;verticalAlign=middle;resizable=0;points=[];autosize=1;strokeColor=none;fillColor=none;" parent="1" vertex="1">
                    <mxGeometry x="650.5" y="186.35" width="30" height="30" as="geometry"/>
                </mxCell>
                <mxCell id="b8j8sX9C9uJOOnNy8c7S-17" value="B" style="text;html=1;align=center;verticalAlign=middle;resizable=0;points=[];autosize=1;strokeColor=none;fillColor=none;" parent="1" vertex="1">
                    <mxGeometry x="260" y="165.94" width="30" height="30" as="geometry"/>
                </mxCell>
                <mxCell id="b8j8sX9C9uJOOnNy8c7S-18" value="$$z_b$$" style="text;html=1;align=center;verticalAlign=middle;resizable=0;points=[];autosize=1;strokeColor=none;fillColor=none;" parent="1" vertex="1">
                    <mxGeometry x="20" y="118.48" width="70" height="30" as="geometry"/>
                </mxCell>
                <mxCell id="b8j8sX9C9uJOOnNy8c7S-19" value="" style="endArrow=none;dashed=1;html=1;strokeWidth=2;dashPattern=1 1;movable=1;resizable=1;rotatable=1;deletable=1;editable=1;connectable=1;" parent="1" target="b8j8sX9C9uJOOnNy8c7S-14" edge="1">
                    <mxGeometry width="50" height="50" relative="1" as="geometry">
                        <mxPoint x="237.7" y="330.94000000000005" as="sourcePoint"/>
                        <mxPoint x="238" y="180" as="targetPoint"/>
                    </mxGeometry>
                </mxCell>
                <mxCell id="b8j8sX9C9uJOOnNy8c7S-20" value="$$x_b$$" style="text;html=1;align=center;verticalAlign=middle;resizable=0;points=[];autosize=1;strokeColor=none;fillColor=none;" parent="1" vertex="1">
                    <mxGeometry x="203" y="320.94" width="70" height="30" as="geometry"/>
                </mxCell>
                <mxCell id="r7VjS9YqXIL3C1uOv69l-96" value="" style="endArrow=none;dashed=1;html=1;dashPattern=1 1;strokeWidth=2;exitX=1;exitY=1;exitDx=0;exitDy=0;movable=1;resizable=1;rotatable=1;deletable=1;editable=1;connectable=1;" parent="1" source="r7VjS9YqXIL3C1uOv69l-49" edge="1">
                    <mxGeometry width="50" height="50" relative="1" as="geometry">
                        <mxPoint x="670.5" y="290.94" as="sourcePoint"/>
                        <mxPoint x="680.5" y="330" as="targetPoint"/>
                    </mxGeometry>
                </mxCell>
                <mxCell id="r7VjS9YqXIL3C1uOv69l-98" value="$$x_g$$" style="edgeLabel;html=1;align=center;verticalAlign=middle;resizable=1;points=[];movable=1;rotatable=1;deletable=1;editable=1;connectable=1;" parent="r7VjS9YqXIL3C1uOv69l-96" vertex="1" connectable="0">
                    <mxGeometry x="0.7917" y="1" relative="1" as="geometry">
                        <mxPoint x="9" y="20" as="offset"/>
                    </mxGeometry>
                </mxCell>
                <mxCell id="r7VjS9YqXIL3C1uOv69l-41" value="" style="endArrow=classic;html=1;movable=1;resizable=1;rotatable=1;deletable=1;editable=1;connectable=1;" parent="1" edge="1">
                    <mxGeometry width="50" height="50" relative="1" as="geometry">
                        <mxPoint x="530.5" y="329.27" as="sourcePoint"/>
                        <mxPoint x="810.5" y="329.27" as="targetPoint"/>
                    </mxGeometry>
                </mxCell>
                <mxCell id="r7VjS9YqXIL3C1uOv69l-42" value="X" style="edgeLabel;html=1;align=center;verticalAlign=middle;resizable=1;points=[];movable=1;rotatable=1;deletable=1;editable=1;connectable=1;" parent="r7VjS9YqXIL3C1uOv69l-41" vertex="1" connectable="0">
                    <mxGeometry x="0.5184" y="1" relative="1" as="geometry">
                        <mxPoint x="77" y="1" as="offset"/>
                    </mxGeometry>
                </mxCell>
            </root>
        </mxGraphModel>
    </diagram>
    <diagram id="tc9TWvhDo0zHE3rHQ05e" name="Control">
        <mxGraphModel dx="1386" dy="681" grid="1" gridSize="10" guides="1" tooltips="1" connect="1" arrows="1" fold="1" page="1" pageScale="1" pageWidth="1169" pageHeight="827" math="1" shadow="0">
            <root>
                <mxCell id="0"/>
                <mxCell id="1" parent="0"/>
                <mxCell id="z8iAxkJty91ogYg4BGcb-37" value="" style="rounded=0;whiteSpace=wrap;html=1;" parent="1" vertex="1">
                    <mxGeometry x="80" y="40" width="1040" height="310" as="geometry"/>
                </mxCell>
                <mxCell id="kl2oT4o7vf9AmKwEeogx-1" value="DC Motor" style="rounded=1;whiteSpace=wrap;html=1;" parent="1" vertex="1">
                    <mxGeometry x="810" y="200" width="120" height="40" as="geometry"/>
                </mxCell>
                <mxCell id="kl2oT4o7vf9AmKwEeogx-7" value="" style="edgeStyle=none;html=1;startArrow=none;startFill=0;endArrow=classic;endFill=1;" parent="1" target="kl2oT4o7vf9AmKwEeogx-1" edge="1">
                    <mxGeometry relative="1" as="geometry">
                        <mxPoint x="750" y="220.92857142857144" as="sourcePoint"/>
                    </mxGeometry>
                </mxCell>
                <mxCell id="zXFOu_USezFA6eg3ilg--1" value="$$V_a$$" style="edgeLabel;html=1;align=center;verticalAlign=middle;resizable=0;points=[];" parent="kl2oT4o7vf9AmKwEeogx-7" vertex="1" connectable="0">
                    <mxGeometry x="-0.1776" y="2" relative="1" as="geometry">
                        <mxPoint x="-4" y="1" as="offset"/>
                    </mxGeometry>
                </mxCell>
                <mxCell id="kl2oT4o7vf9AmKwEeogx-10" value="" style="verticalLabelPosition=bottom;shadow=0;dashed=0;align=center;html=1;verticalAlign=top;shape=mxgraph.electrical.abstract.sum;" parent="1" vertex="1">
                    <mxGeometry x="630" y="200" width="40" height="40" as="geometry"/>
                </mxCell>
                <mxCell id="kl2oT4o7vf9AmKwEeogx-11" value="PI" style="rounded=1;whiteSpace=wrap;html=1;" parent="1" vertex="1">
                    <mxGeometry x="710" y="200" width="40" height="40" as="geometry"/>
                </mxCell>
                <mxCell id="kl2oT4o7vf9AmKwEeogx-18" value="" style="edgeStyle=none;html=1;startArrow=none;startFill=0;endArrow=classic;endFill=1;" parent="1" source="kl2oT4o7vf9AmKwEeogx-10" target="kl2oT4o7vf9AmKwEeogx-11" edge="1">
                    <mxGeometry relative="1" as="geometry"/>
                </mxCell>
                <mxCell id="froY6vI22CUGPgSf56fv-1" style="edgeStyle=none;html=1;entryX=0.5;entryY=1;entryDx=0;entryDy=0;entryPerimeter=0;startArrow=none;startFill=0;endArrow=classic;endFill=1;exitX=0;exitY=0.5;exitDx=0;exitDy=0;" parent="1" source="kl2oT4o7vf9AmKwEeogx-14" target="kl2oT4o7vf9AmKwEeogx-10" edge="1">
                    <mxGeometry relative="1" as="geometry">
                        <Array as="points">
                            <mxPoint x="650" y="266"/>
                        </Array>
                    </mxGeometry>
                </mxCell>
                <mxCell id="froY6vI22CUGPgSf56fv-2" value="$$\dot\phi$$" style="edgeLabel;html=1;align=center;verticalAlign=middle;resizable=0;points=[];" parent="froY6vI22CUGPgSf56fv-1" vertex="1" connectable="0">
                    <mxGeometry x="-0.0532" relative="1" as="geometry">
                        <mxPoint x="48" y="-1" as="offset"/>
                    </mxGeometry>
                </mxCell>
                <mxCell id="z8iAxkJty91ogYg4BGcb-16" value="" style="edgeStyle=none;html=1;startArrow=none;startFill=0;endArrow=classic;endFill=1;entryX=0.5;entryY=1;entryDx=0;entryDy=0;" parent="1" source="kl2oT4o7vf9AmKwEeogx-14" target="z8iAxkJty91ogYg4BGcb-19" edge="1">
                    <mxGeometry relative="1" as="geometry">
                        <mxPoint x="950" y="265" as="targetPoint"/>
                        <Array as="points">
                            <mxPoint x="990" y="265"/>
                        </Array>
                    </mxGeometry>
                </mxCell>
                <mxCell id="kl2oT4o7vf9AmKwEeogx-14" value="Encoder" style="rounded=1;whiteSpace=wrap;html=1;" parent="1" vertex="1">
                    <mxGeometry x="810" y="250" width="120" height="30" as="geometry"/>
                </mxCell>
                <mxCell id="zXFOu_USezFA6eg3ilg--20" value="$$v_b$$" style="edgeStyle=none;html=1;startArrow=none;startFill=0;endArrow=classic;endFill=1;entryX=0;entryY=0.75;entryDx=0;entryDy=0;" parent="1" source="froY6vI22CUGPgSf56fv-4" edge="1">
                    <mxGeometry relative="1" as="geometry">
                        <mxPoint x="470" y="220" as="targetPoint"/>
                        <mxPoint as="offset"/>
                    </mxGeometry>
                </mxCell>
                <mxCell id="zXFOu_USezFA6eg3ilg--21" value="$$v_b$$" style="edgeLabel;html=1;align=center;verticalAlign=middle;resizable=0;points=[];" parent="zXFOu_USezFA6eg3ilg--20" vertex="1" connectable="0">
                    <mxGeometry x="-0.2677" y="-1" relative="1" as="geometry">
                        <mxPoint x="82" y="-1" as="offset"/>
                    </mxGeometry>
                </mxCell>
                <mxCell id="froY6vI22CUGPgSf56fv-4" value="PID" style="rounded=1;whiteSpace=wrap;html=1;" parent="1" vertex="1">
                    <mxGeometry x="390" y="200" width="40" height="40" as="geometry"/>
                </mxCell>
                <mxCell id="froY6vI22CUGPgSf56fv-8" value="" style="edgeStyle=none;html=1;startArrow=none;startFill=0;endArrow=classic;endFill=1;" parent="1" source="froY6vI22CUGPgSf56fv-5" target="froY6vI22CUGPgSf56fv-6" edge="1">
                    <mxGeometry relative="1" as="geometry"/>
                </mxCell>
                <mxCell id="froY6vI22CUGPgSf56fv-9" value="$$\theta$$" style="edgeLabel;html=1;align=center;verticalAlign=middle;resizable=0;points=[];" parent="froY6vI22CUGPgSf56fv-8" vertex="1" connectable="0">
                    <mxGeometry x="-0.2253" y="2" relative="1" as="geometry">
                        <mxPoint x="7" y="-2" as="offset"/>
                    </mxGeometry>
                </mxCell>
                <mxCell id="froY6vI22CUGPgSf56fv-5" value="IMU" style="rounded=1;whiteSpace=wrap;html=1;" parent="1" vertex="1">
                    <mxGeometry x="295" y="270" width="70" height="30" as="geometry"/>
                </mxCell>
                <mxCell id="froY6vI22CUGPgSf56fv-7" value="" style="edgeStyle=none;html=1;startArrow=none;startFill=0;endArrow=classic;endFill=1;" parent="1" source="froY6vI22CUGPgSf56fv-6" target="froY6vI22CUGPgSf56fv-4" edge="1">
                    <mxGeometry relative="1" as="geometry"/>
                </mxCell>
                <mxCell id="froY6vI22CUGPgSf56fv-6" value="" style="verticalLabelPosition=bottom;shadow=0;dashed=0;align=center;html=1;verticalAlign=top;shape=mxgraph.electrical.abstract.sum;" parent="1" vertex="1">
                    <mxGeometry x="310" y="200" width="40" height="40" as="geometry"/>
                </mxCell>
                <mxCell id="zXFOu_USezFA6eg3ilg--4" value="DC Motor" style="rounded=1;whiteSpace=wrap;html=1;" parent="1" vertex="1">
                    <mxGeometry x="810" y="120" width="120" height="40" as="geometry"/>
                </mxCell>
                <mxCell id="zXFOu_USezFA6eg3ilg--5" value="" style="edgeStyle=none;html=1;startArrow=none;startFill=0;endArrow=classic;endFill=1;" parent="1" target="zXFOu_USezFA6eg3ilg--4" edge="1">
                    <mxGeometry relative="1" as="geometry">
                        <mxPoint x="750" y="139.92857142857144" as="sourcePoint"/>
                    </mxGeometry>
                </mxCell>
                <mxCell id="zXFOu_USezFA6eg3ilg--6" value="$$V_a$$" style="edgeLabel;html=1;align=center;verticalAlign=middle;resizable=0;points=[];" parent="zXFOu_USezFA6eg3ilg--5" vertex="1" connectable="0">
                    <mxGeometry x="-0.1776" y="2" relative="1" as="geometry">
                        <mxPoint x="-5" y="2" as="offset"/>
                    </mxGeometry>
                </mxCell>
                <mxCell id="zXFOu_USezFA6eg3ilg--7" value="" style="verticalLabelPosition=bottom;shadow=0;dashed=0;align=center;html=1;verticalAlign=top;shape=mxgraph.electrical.abstract.sum;" parent="1" vertex="1">
                    <mxGeometry x="630" y="120" width="40" height="40" as="geometry"/>
                </mxCell>
                <mxCell id="zXFOu_USezFA6eg3ilg--8" value="PI" style="rounded=1;whiteSpace=wrap;html=1;" parent="1" vertex="1">
                    <mxGeometry x="710" y="120" width="40" height="40" as="geometry"/>
                </mxCell>
                <mxCell id="zXFOu_USezFA6eg3ilg--9" value="" style="edgeStyle=none;html=1;startArrow=none;startFill=0;endArrow=classic;endFill=1;" parent="1" source="zXFOu_USezFA6eg3ilg--7" target="zXFOu_USezFA6eg3ilg--8" edge="1">
                    <mxGeometry relative="1" as="geometry"/>
                </mxCell>
                <mxCell id="zXFOu_USezFA6eg3ilg--10" style="edgeStyle=none;html=1;entryX=0.5;entryY=0;entryDx=0;entryDy=0;entryPerimeter=0;startArrow=none;startFill=0;endArrow=classic;endFill=1;exitX=0;exitY=0.5;exitDx=0;exitDy=0;" parent="1" source="zXFOu_USezFA6eg3ilg--12" target="zXFOu_USezFA6eg3ilg--7" edge="1">
                    <mxGeometry relative="1" as="geometry">
                        <Array as="points">
                            <mxPoint x="650" y="96"/>
                        </Array>
                    </mxGeometry>
                </mxCell>
                <mxCell id="zXFOu_USezFA6eg3ilg--11" value="$$\dot\phi$$" style="edgeLabel;html=1;align=center;verticalAlign=middle;resizable=0;points=[];" parent="zXFOu_USezFA6eg3ilg--10" vertex="1" connectable="0">
                    <mxGeometry x="-0.0532" relative="1" as="geometry">
                        <mxPoint x="47" y="-1" as="offset"/>
                    </mxGeometry>
                </mxCell>
                <mxCell id="z8iAxkJty91ogYg4BGcb-15" value="" style="edgeStyle=none;html=1;startArrow=none;startFill=0;endArrow=classic;endFill=1;entryX=0.5;entryY=0;entryDx=0;entryDy=0;" parent="1" source="zXFOu_USezFA6eg3ilg--12" target="z8iAxkJty91ogYg4BGcb-19" edge="1">
                    <mxGeometry relative="1" as="geometry">
                        <mxPoint x="950" y="95" as="targetPoint"/>
                        <Array as="points">
                            <mxPoint x="990" y="95"/>
                        </Array>
                    </mxGeometry>
                </mxCell>
                <mxCell id="zXFOu_USezFA6eg3ilg--12" value="Encoder" style="rounded=1;whiteSpace=wrap;html=1;" parent="1" vertex="1">
                    <mxGeometry x="810" y="80" width="120" height="30" as="geometry"/>
                </mxCell>
                <mxCell id="z8iAxkJty91ogYg4BGcb-30" style="edgeStyle=none;html=1;entryX=0;entryY=0.5;entryDx=0;entryDy=0;entryPerimeter=0;startArrow=none;startFill=0;endArrow=classic;endFill=1;exitX=1;exitY=0.25;exitDx=0;exitDy=0;" parent="1" target="zXFOu_USezFA6eg3ilg--7" edge="1">
                    <mxGeometry relative="1" as="geometry">
                        <mxPoint x="550" y="140" as="sourcePoint"/>
                    </mxGeometry>
                </mxCell>
                <mxCell id="z8iAxkJty91ogYg4BGcb-31" value="$${\omega_R}_{ref}$$" style="edgeLabel;html=1;align=center;verticalAlign=middle;resizable=0;points=[];" parent="z8iAxkJty91ogYg4BGcb-30" vertex="1" connectable="0">
                    <mxGeometry x="-0.212" y="-1" relative="1" as="geometry">
                        <mxPoint x="9" y="-1" as="offset"/>
                    </mxGeometry>
                </mxCell>
                <mxCell id="z8iAxkJty91ogYg4BGcb-32" value="$${\omega_L}_{ref}$$" style="edgeStyle=none;html=1;entryX=0;entryY=0.5;entryDx=0;entryDy=0;entryPerimeter=0;startArrow=none;startFill=0;endArrow=classic;endFill=1;exitX=1;exitY=0.75;exitDx=0;exitDy=0;" parent="1" target="kl2oT4o7vf9AmKwEeogx-10" edge="1">
                    <mxGeometry relative="1" as="geometry">
                        <mxPoint x="550" y="220" as="sourcePoint"/>
                    </mxGeometry>
                </mxCell>
                <mxCell id="z8iAxkJty91ogYg4BGcb-2" style="edgeStyle=none;html=1;entryX=0;entryY=0.25;entryDx=0;entryDy=0;startArrow=none;startFill=0;endArrow=classic;endFill=1;" parent="1" source="z8iAxkJty91ogYg4BGcb-1" edge="1">
                    <mxGeometry relative="1" as="geometry">
                        <mxPoint x="470" y="140" as="targetPoint"/>
                    </mxGeometry>
                </mxCell>
                <mxCell id="z8iAxkJty91ogYg4BGcb-3" value="$$\omega_b$$" style="edgeLabel;html=1;align=center;verticalAlign=middle;resizable=0;points=[];" parent="z8iAxkJty91ogYg4BGcb-2" vertex="1" connectable="0">
                    <mxGeometry x="-0.3123" relative="1" as="geometry">
                        <mxPoint as="offset"/>
                    </mxGeometry>
                </mxCell>
                <mxCell id="z8iAxkJty91ogYg4BGcb-1" value="P" style="rounded=1;whiteSpace=wrap;html=1;" parent="1" vertex="1">
                    <mxGeometry x="390" y="120" width="40" height="40" as="geometry"/>
                </mxCell>
                <mxCell id="z8iAxkJty91ogYg4BGcb-8" value="" style="edgeStyle=none;html=1;startArrow=none;startFill=0;endArrow=classic;endFill=1;" parent="1" source="z8iAxkJty91ogYg4BGcb-5" target="z8iAxkJty91ogYg4BGcb-1" edge="1">
                    <mxGeometry relative="1" as="geometry"/>
                </mxCell>
                <mxCell id="z8iAxkJty91ogYg4BGcb-5" value="" style="verticalLabelPosition=bottom;shadow=0;dashed=0;align=center;html=1;verticalAlign=top;shape=mxgraph.electrical.abstract.sum;" parent="1" vertex="1">
                    <mxGeometry x="310" y="120" width="40" height="40" as="geometry"/>
                </mxCell>
                <mxCell id="z8iAxkJty91ogYg4BGcb-20" value="$$\dot\phi_b$$" style="edgeStyle=none;html=1;entryX=0.5;entryY=0;entryDx=0;entryDy=0;entryPerimeter=0;startArrow=none;startFill=0;endArrow=classic;endFill=1;exitX=1;exitY=0.25;exitDx=0;exitDy=0;" parent="1" source="z8iAxkJty91ogYg4BGcb-19" target="z8iAxkJty91ogYg4BGcb-5" edge="1">
                    <mxGeometry x="-0.956" relative="1" as="geometry">
                        <Array as="points">
                            <mxPoint x="1080" y="150"/>
                            <mxPoint x="1080" y="60"/>
                            <mxPoint x="690" y="60"/>
                            <mxPoint x="330" y="60"/>
                        </Array>
                        <mxPoint as="offset"/>
                    </mxGeometry>
                </mxCell>
                <mxCell id="z8iAxkJty91ogYg4BGcb-21" value="$$\dot\phi_b$$" style="edgeLabel;html=1;align=center;verticalAlign=middle;resizable=0;points=[];" parent="z8iAxkJty91ogYg4BGcb-20" vertex="1" connectable="0">
                    <mxGeometry x="0.9347" y="1" relative="1" as="geometry">
                        <mxPoint x="9" as="offset"/>
                    </mxGeometry>
                </mxCell>
                <mxCell id="z8iAxkJty91ogYg4BGcb-23" style="edgeStyle=none;html=1;entryX=0.5;entryY=1;entryDx=0;entryDy=0;entryPerimeter=0;startArrow=none;startFill=0;endArrow=classic;endFill=1;exitX=1;exitY=0.75;exitDx=0;exitDy=0;" parent="1" source="z8iAxkJty91ogYg4BGcb-19" target="z8iAxkJty91ogYg4BGcb-22" edge="1">
                    <mxGeometry relative="1" as="geometry">
                        <Array as="points">
                            <mxPoint x="1080" y="210"/>
                            <mxPoint x="1080" y="320"/>
                            <mxPoint x="190" y="320"/>
                        </Array>
                    </mxGeometry>
                </mxCell>
                <mxCell id="z8iAxkJty91ogYg4BGcb-24" value="$$\dot{x}_b$$" style="edgeLabel;html=1;align=center;verticalAlign=middle;resizable=0;points=[];" parent="z8iAxkJty91ogYg4BGcb-23" vertex="1" connectable="0">
                    <mxGeometry x="-0.9606" y="-2" relative="1" as="geometry">
                        <mxPoint as="offset"/>
                    </mxGeometry>
                </mxCell>
                <mxCell id="z8iAxkJty91ogYg4BGcb-25" value="$$\dot{x}_b$$" style="edgeLabel;html=1;align=center;verticalAlign=middle;resizable=0;points=[];" parent="z8iAxkJty91ogYg4BGcb-23" vertex="1" connectable="0">
                    <mxGeometry x="0.9361" relative="1" as="geometry">
                        <mxPoint x="10" as="offset"/>
                    </mxGeometry>
                </mxCell>
                <mxCell id="z8iAxkJty91ogYg4BGcb-19" value="DDMR State Estimator" style="rounded=1;whiteSpace=wrap;html=1;" parent="1" vertex="1">
                    <mxGeometry x="950" y="120" width="80" height="120" as="geometry"/>
                </mxCell>
                <mxCell id="z8iAxkJty91ogYg4BGcb-27" value="" style="edgeStyle=none;html=1;startArrow=none;startFill=0;endArrow=classic;endFill=1;" parent="1" source="z8iAxkJty91ogYg4BGcb-22" target="z8iAxkJty91ogYg4BGcb-26" edge="1">
                    <mxGeometry relative="1" as="geometry"/>
                </mxCell>
                <mxCell id="z8iAxkJty91ogYg4BGcb-22" value="" style="verticalLabelPosition=bottom;shadow=0;dashed=0;align=center;html=1;verticalAlign=top;shape=mxgraph.electrical.abstract.sum;" parent="1" vertex="1">
                    <mxGeometry x="170" y="200" width="40" height="40" as="geometry"/>
                </mxCell>
                <mxCell id="z8iAxkJty91ogYg4BGcb-28" value="" style="edgeStyle=none;html=1;startArrow=none;startFill=0;endArrow=classic;endFill=1;" parent="1" source="z8iAxkJty91ogYg4BGcb-26" target="froY6vI22CUGPgSf56fv-6" edge="1">
                    <mxGeometry relative="1" as="geometry"/>
                </mxCell>
                <mxCell id="z8iAxkJty91ogYg4BGcb-29" value="$$\theta_{ref}$$" style="edgeLabel;html=1;align=center;verticalAlign=middle;resizable=0;points=[];" parent="z8iAxkJty91ogYg4BGcb-28" vertex="1" connectable="0">
                    <mxGeometry x="-0.2" y="-1" relative="1" as="geometry">
                        <mxPoint as="offset"/>
                    </mxGeometry>
                </mxCell>
                <mxCell id="z8iAxkJty91ogYg4BGcb-26" value="PID" style="rounded=1;whiteSpace=wrap;html=1;" parent="1" vertex="1">
                    <mxGeometry x="230" y="200" width="40" height="40" as="geometry"/>
                </mxCell>
                <mxCell id="z8iAxkJty91ogYg4BGcb-33" value="" style="endArrow=classic;html=1;entryX=0;entryY=0.5;entryDx=0;entryDy=0;entryPerimeter=0;startArrow=oval;startFill=1;" parent="1" target="z8iAxkJty91ogYg4BGcb-5" edge="1">
                    <mxGeometry width="50" height="50" relative="1" as="geometry">
                        <mxPoint x="140" y="141" as="sourcePoint"/>
                        <mxPoint x="180" y="120" as="targetPoint"/>
                    </mxGeometry>
                </mxCell>
                <mxCell id="z8iAxkJty91ogYg4BGcb-34" value="$${\omega_b}_{ref}$$" style="edgeLabel;html=1;align=center;verticalAlign=middle;resizable=0;points=[];" parent="z8iAxkJty91ogYg4BGcb-33" vertex="1" connectable="0">
                    <mxGeometry x="0.0762" y="-2" relative="1" as="geometry">
                        <mxPoint x="-116" y="-2" as="offset"/>
                    </mxGeometry>
                </mxCell>
                <mxCell id="z8iAxkJty91ogYg4BGcb-35" value="" style="endArrow=classic;html=1;entryX=0;entryY=0.5;entryDx=0;entryDy=0;entryPerimeter=0;startArrow=oval;startFill=1;" parent="1" target="z8iAxkJty91ogYg4BGcb-22" edge="1">
                    <mxGeometry width="50" height="50" relative="1" as="geometry">
                        <mxPoint x="140" y="220" as="sourcePoint"/>
                        <mxPoint x="140" y="170" as="targetPoint"/>
                    </mxGeometry>
                </mxCell>
                <mxCell id="z8iAxkJty91ogYg4BGcb-36" value="$${v_b}_{ref}$$" style="edgeLabel;html=1;align=center;verticalAlign=middle;resizable=0;points=[];" parent="z8iAxkJty91ogYg4BGcb-35" vertex="1" connectable="0">
                    <mxGeometry x="0.1322" y="1" relative="1" as="geometry">
                        <mxPoint x="-37" y="1" as="offset"/>
                    </mxGeometry>
                </mxCell>
            </root>
        </mxGraphModel>
    </diagram>
    <diagram id="WvI_grJ80ter3EhH-Znv" name="Page-4">
        <mxGraphModel dx="1510" dy="973" grid="1" gridSize="10" guides="1" tooltips="1" connect="1" arrows="1" fold="1" page="1" pageScale="1" pageWidth="827" pageHeight="1169" math="1" shadow="0">
            <root>
                <mxCell id="0"/>
                <mxCell id="1" parent="0"/>
                <mxCell id="mO7OwjofUdBAvbQRAIgy-1" value="Raspberry Pi 5" style="rounded=0;whiteSpace=wrap;html=1;fontSize=11;fillColor=#d0cee2;strokeColor=#56517e;" vertex="1" parent="1">
                    <mxGeometry x="320" y="110" width="101.26" height="36" as="geometry"/>
                </mxCell>
                <mxCell id="mO7OwjofUdBAvbQRAIgy-2" value="" style="group;fontSize=11;fontColor=#333333;strokeColor=default;rounded=0;" vertex="1" connectable="0" parent="1">
                    <mxGeometry x="70" y="40" width="100" height="60" as="geometry"/>
                </mxCell>
                <mxCell id="mO7OwjofUdBAvbQRAIgy-3" value="12V 2S3P 5Ah" style="rounded=0;whiteSpace=wrap;html=1;fontSize=11;fillColor=#d0cee2;strokeColor=#56517e;" vertex="1" parent="mO7OwjofUdBAvbQRAIgy-2">
                    <mxGeometry y="20" width="99.99999999999999" height="20" as="geometry"/>
                </mxCell>
                <mxCell id="mO7OwjofUdBAvbQRAIgy-4" value="USB-C PD 3S" style="rounded=0;whiteSpace=wrap;html=1;fontSize=11;fillColor=#f5f5f5;fontColor=#333333;strokeColor=default;" vertex="1" parent="mO7OwjofUdBAvbQRAIgy-2">
                    <mxGeometry width="99.99999999999999" height="20" as="geometry"/>
                </mxCell>
                <mxCell id="mO7OwjofUdBAvbQRAIgy-5" value="3S BMS" style="rounded=0;whiteSpace=wrap;html=1;fontSize=11;fillColor=#f5f5f5;fontColor=#333333;strokeColor=default;" vertex="1" parent="mO7OwjofUdBAvbQRAIgy-2">
                    <mxGeometry y="40" width="99.99999999999999" height="20" as="geometry"/>
                </mxCell>
                <mxCell id="mO7OwjofUdBAvbQRAIgy-6" value="&lt;font style=&quot;font-size: 11px;&quot;&gt;&lt;span style=&quot;font-family: Helvetica; font-size: 11px; font-style: normal; font-variant-ligatures: normal; font-variant-caps: normal; font-weight: 400; letter-spacing: normal; orphans: 2; text-align: center; text-indent: 0px; text-transform: none; widows: 2; word-spacing: 0px; -webkit-text-stroke-width: 0px; text-decoration-thickness: initial; text-decoration-style: initial; text-decoration-color: initial; float: none; display: inline !important;&quot;&gt;MPU6050&amp;nbsp;&lt;/span&gt;&lt;span style=&quot;font-family: Helvetica; font-size: 11px; font-style: normal; font-variant-ligatures: normal; font-variant-caps: normal; font-weight: 400; letter-spacing: normal; orphans: 2; text-align: center; text-indent: 0px; text-transform: none; widows: 2; word-spacing: 0px; -webkit-text-stroke-width: 0px; text-decoration-thickness: initial; text-decoration-style: initial; text-decoration-color: initial; float: none; display: inline !important;&quot;&gt;6-Axis IMU&lt;/span&gt;&lt;/font&gt;" style="rounded=0;html=1;fontSize=11;fillColor=#d0cee2;strokeColor=#56517e;" vertex="1" parent="1">
                    <mxGeometry x="180" y="70" width="130" height="30" as="geometry"/>
                </mxCell>
                <mxCell id="mO7OwjofUdBAvbQRAIgy-7" value="" style="group;fontSize=11;fontColor=#333333;strokeColor=default;rounded=0;" vertex="1" connectable="0" parent="1">
                    <mxGeometry x="180" y="110" width="130" height="60" as="geometry"/>
                </mxCell>
                <mxCell id="mO7OwjofUdBAvbQRAIgy-8" value="I2C" style="rounded=0;whiteSpace=wrap;html=1;container=0;fillColor=#f5f5f5;fontColor=#333333;strokeColor=default;fontSize=11;" vertex="1" parent="mO7OwjofUdBAvbQRAIgy-7">
                    <mxGeometry x="20" width="90" height="20" as="geometry"/>
                </mxCell>
                <mxCell id="mO7OwjofUdBAvbQRAIgy-9" value="STM32" style="rounded=0;whiteSpace=wrap;html=1;container=0;fillColor=#d0cee2;strokeColor=#56517e;fontSize=11;" vertex="1" parent="mO7OwjofUdBAvbQRAIgy-7">
                    <mxGeometry x="20" y="20" width="90" height="20" as="geometry"/>
                </mxCell>
                <mxCell id="mO7OwjofUdBAvbQRAIgy-10" value="&lt;span style=&quot;border-color: var(--border-color); font-size: 11px;&quot;&gt;Quadrature&amp;nbsp;&lt;/span&gt;&lt;span style=&quot;border-color: var(--border-color); font-size: 11px;&quot;&gt;Decoder&lt;/span&gt;" style="rounded=0;whiteSpace=wrap;html=1;container=0;fillColor=#f5f5f5;fontColor=#333333;strokeColor=default;fontSize=11;" vertex="1" parent="mO7OwjofUdBAvbQRAIgy-7">
                    <mxGeometry y="40" width="130" height="20" as="geometry"/>
                </mxCell>
                <mxCell id="mO7OwjofUdBAvbQRAIgy-11" value="PWM" style="rounded=0;whiteSpace=wrap;html=1;container=0;fillColor=#f5f5f5;fontColor=#333333;strokeColor=default;fontSize=11;" vertex="1" parent="mO7OwjofUdBAvbQRAIgy-7">
                    <mxGeometry y="20" width="40" height="20" as="geometry"/>
                </mxCell>
                <mxCell id="mO7OwjofUdBAvbQRAIgy-12" value="UART" style="rounded=0;whiteSpace=wrap;html=1;container=0;fillColor=#f5f5f5;fontColor=#333333;strokeColor=default;fontSize=11;" vertex="1" parent="mO7OwjofUdBAvbQRAIgy-7">
                    <mxGeometry x="90" width="40" height="40" as="geometry"/>
                </mxCell>
                <mxCell id="mO7OwjofUdBAvbQRAIgy-13" value="ADC" style="rounded=0;whiteSpace=wrap;html=1;labelBackgroundColor=none;strokeColor=default;fontSize=11;fontColor=#333333;fillColor=#f5f5f5;" vertex="1" parent="mO7OwjofUdBAvbQRAIgy-7">
                    <mxGeometry width="40" height="20" as="geometry"/>
                </mxCell>
                <mxCell id="mO7OwjofUdBAvbQRAIgy-14" value="DRV8873 H-Bridge&amp;nbsp;" style="rounded=0;whiteSpace=wrap;html=1;fillColor=#d0cee2;strokeColor=#56517e;fontSize=11;" vertex="1" parent="1">
                    <mxGeometry x="70" y="110" width="100" height="36" as="geometry"/>
                </mxCell>
                <mxCell id="mO7OwjofUdBAvbQRAIgy-15" value="&lt;span style=&quot;font-size: 11px;&quot;&gt;Current Sense&lt;/span&gt;" style="rounded=0;whiteSpace=wrap;html=1;fontSize=11;fillColor=#f5f5f5;fontColor=#333333;strokeColor=default;" vertex="1" parent="1">
                    <mxGeometry x="70" y="146" width="100" height="24" as="geometry"/>
                </mxCell>
                <mxCell id="mO7OwjofUdBAvbQRAIgy-16" value="&lt;span style=&quot;font-family: Helvetica; font-size: 11px; font-style: normal; font-variant-ligatures: normal; font-variant-caps: normal; font-weight: 400; letter-spacing: normal; orphans: 2; text-align: center; text-indent: 0px; text-transform: none; widows: 2; word-spacing: 0px; -webkit-text-stroke-width: 0px; text-decoration-thickness: initial; text-decoration-style: initial; text-decoration-color: initial; float: none; display: inline !important;&quot;&gt;Pi Camera V3 Wide&lt;/span&gt;" style="rounded=0;html=1;fontSize=11;fillColor=#d0cee2;strokeColor=#56517e;" vertex="1" parent="1">
                    <mxGeometry x="319.93" y="43" width="101.33" height="33" as="geometry"/>
                </mxCell>
                <mxCell id="mO7OwjofUdBAvbQRAIgy-17" value="Fish Eye Lens" style="rounded=0;whiteSpace=wrap;html=1;fontSize=11;fillColor=#f5f5f5;strokeColor=default;fontColor=#333333;" vertex="1" parent="1">
                    <mxGeometry x="319.92894736842106" y="76" width="101.3305263157895" height="24" as="geometry"/>
                </mxCell>
                <mxCell id="mO7OwjofUdBAvbQRAIgy-18" value="USBC PD Controler" style="rounded=0;whiteSpace=wrap;html=1;fontSize=11;fillColor=#f5f5f5;strokeColor=default;fontColor=#333333;" vertex="1" parent="1">
                    <mxGeometry x="319.99894736842106" y="146" width="101.3305263157895" height="24" as="geometry"/>
                </mxCell>
            </root>
        </mxGraphModel>
    </diagram>
</mxfile>